<svg width="12" height="14" viewBox="0 0 12 14" fill="none" xmlns="http://www.w3.org/2000/svg">
<path fill-rule="evenodd" clip-rule="evenodd" d="M8 1.33333V0.666667C8 0.298667 8.29867 0 8.66667 0C9.03467 0 9.33333 0.298667 9.33333 0.666667V1.33333C10.806 1.33333 12 2.52733 12 4V10.6667C12 12.1393 10.806 13.3333 9.33333 13.3333C7.42667 13.3333 4.57267 13.3333 2.66667 13.3333C1.194 13.3333 0 12.1393 0 10.6667V4C0 2.52733 1.194 1.33333 2.66667 1.33333V0.666667C2.66667 0.298667 2.96533 0 3.33333 0C3.70133 0 4 0.298667 4 0.666667V1.33333H8ZM10.6667 6.66667H1.33333V10.6667C1.33333 11.4027 1.93 12 2.66667 12H9.33333C10.0693 12 10.6667 11.4027 10.6667 10.6667V6.66667ZM9.33333 2.66667V3.33333C9.33333 3.70133 9.03467 4 8.66667 4C8.29867 4 8 3.70133 8 3.33333V2.66667H4V3.33333C4 3.70133 3.70133 4 3.33333 4C2.96533 4 2.66667 3.70133 2.66667 3.33333V2.66667C1.93 2.66667 1.33333 3.26333 1.33333 4V5.33333H10.6667V4C10.6667 3.26333 10.0693 2.66667 9.33333 2.66667Z" fill="#909BA5"/>
</svg>
