<svg width="26" height="28" viewBox="0 0 26 28" fill="none" xmlns="http://www.w3.org/2000/svg">
<path d="M5.2002 0H1.30005C0.955255 0 0.624582 0.136969 0.380776 0.380776C0.136969 0.624582 0 0.955255 0 1.30005C0 1.64484 0.136969 1.97552 0.380776 2.21932C0.624582 2.46313 0.955255 2.6001 1.30005 2.6001H3.90015V20.8008C3.90015 21.1456 4.03712 21.4763 4.28092 21.7201C4.52473 21.9639 4.8554 22.1008 5.2002 22.1008H20.8008C21.1456 22.1008 21.4763 21.9639 21.7201 21.7201C21.9639 21.4763 22.1008 21.1456 22.1008 20.8008C22.1008 20.456 21.9639 20.1253 21.7201 19.8815C21.4763 19.6377 21.1456 19.5007 20.8008 19.5007H6.50025V16.9006H22.1008C22.3736 16.9004 22.6393 16.8145 22.8605 16.6549C23.0817 16.4953 23.2471 16.2702 23.3333 16.0114L25.9334 8.21111C25.9984 8.01578 26.0162 7.80778 25.9851 7.60425C25.9541 7.40072 25.8751 7.20747 25.7548 7.04042C25.6345 6.87336 25.4762 6.73728 25.2929 6.64337C25.1097 6.54946 24.9068 6.5004 24.7009 6.50025H6.50025V1.30005C6.50025 0.955255 6.36328 0.624582 6.11947 0.380776C5.87566 0.136969 5.54499 0 5.2002 0ZM22.8965 9.10035L21.1635 14.3005H6.50025V9.10035H22.8965Z" fill="#EE3E15"/>
<path d="M5.85046 27.301C6.92746 27.301 7.80054 26.4279 7.80054 25.351C7.80054 24.274 6.92746 23.4009 5.85046 23.4009C4.77347 23.4009 3.90039 24.274 3.90039 25.351C3.90039 26.4279 4.77347 27.301 5.85046 27.301Z" fill="#EE3E15"/>
<path d="M18.8505 27.301C19.9275 27.301 20.8005 26.4279 20.8005 25.351C20.8005 24.274 19.9275 23.4009 18.8505 23.4009C17.7735 23.4009 16.9004 24.274 16.9004 25.351C16.9004 26.4279 17.7735 27.301 18.8505 27.301Z" fill="#EE3E15"/>
</svg>
