<svg width="24" height="24" viewBox="0 0 24 24" fill="none" xmlns="http://www.w3.org/2000/svg">
<path d="M11.999 14.4025C13.3229 14.4025 14.4023 13.3251 14.4023 12.0002C14.4023 11.4772 14.2312 10.9943 13.9479 10.5999C13.5115 9.99471 12.8019 9.59787 12.0005 9.59787C11.1986 9.59787 10.4895 9.99423 10.052 10.5994C9.7678 10.9938 9.59814 11.4767 9.59766 11.9997C9.59621 13.3246 10.6746 14.4025 11.999 14.4025Z" fill="white"/>
<path d="M17.2455 9.06128V7.04758V6.74789L16.9444 6.74886L14.9316 6.75514L14.9394 9.06901L17.2455 9.06128Z" fill="white"/>
<path d="M12 0C5.38323 0 0 5.38323 0 12C0 18.6163 5.38323 24 12 24C18.6163 24 24 18.6163 24 12C24 5.38323 18.6173 0 12 0ZM18.8246 10.5997V16.1874C18.8246 17.6428 17.6413 18.8256 16.1869 18.8256H7.8131C6.35817 18.8256 5.17538 17.6428 5.17538 16.1874V10.5997V7.81358C5.17538 6.35866 6.35817 5.17586 7.8131 5.17586H16.1864C17.6413 5.17586 18.8246 6.35866 18.8246 7.81358V10.5997Z" fill="white"/>
<path d="M15.7323 11.9999C15.7323 14.0576 14.0579 15.7329 11.9993 15.7329C9.94063 15.7329 8.26674 14.0576 8.26674 11.9999C8.26674 11.5049 8.36534 11.0317 8.54129 10.5996H6.50391V16.1873C6.50391 16.9094 7.09023 17.4943 7.81189 17.4943H16.1852C16.9059 17.4943 17.4932 16.9094 17.4932 16.1873V10.5996H15.4548C15.6322 11.0317 15.7323 11.5049 15.7323 11.9999Z" fill="white"/>
</svg>
