<svg width="24" height="24" viewBox="0 0 24 24" fill="none" xmlns="http://www.w3.org/2000/svg">
<g clip-path="url(#clip0)">
<path d="M12 0.000976562C5.38323 0.000976562 0 5.3842 0 12.001C0 18.6173 5.38323 24.001 12 24.001C18.6163 24.001 24 18.6173 24 12.001C24 5.3842 18.6173 0.000976562 12 0.000976562ZM14.9843 12.4234H13.032V19.3819H10.139C10.139 19.3819 10.139 15.5798 10.139 12.4234H8.76388V9.96408H10.139V8.37333C10.139 7.23404 10.6804 5.45381 13.0586 5.45381L15.2023 5.46203V7.84936C15.2023 7.84936 13.8996 7.84936 13.6463 7.84936C13.3931 7.84936 13.0329 7.976 13.0329 8.5193V9.96456H15.2371L14.9843 12.4234Z" fill="white"/>
</g>
<defs>
<clipPath id="clip0">
<rect width="24" height="24" fill="white" transform="translate(0 0.000976562)"/>
</clipPath>
</defs>
</svg>
