<svg width="14" height="16" viewBox="0 0 14 16" fill="none" xmlns="http://www.w3.org/2000/svg">
<path fill-rule="evenodd" clip-rule="evenodd" d="M9.33333 1.55556V0.777778C9.33333 0.348444 9.68178 0 10.1111 0C10.5404 0 10.8889 0.348444 10.8889 0.777778V1.55556C12.607 1.55556 14 2.94856 14 4.66667V12.4444C14 14.1626 12.607 15.5556 10.8889 15.5556C8.66444 15.5556 5.33478 15.5556 3.11111 15.5556C1.393 15.5556 0 14.1626 0 12.4444V4.66667C0 2.94856 1.393 1.55556 3.11111 1.55556V0.777778C3.11111 0.348444 3.45956 0 3.88889 0C4.31822 0 4.66667 0.348444 4.66667 0.777778V1.55556H9.33333ZM12.4444 7.77778H1.55556V12.4444C1.55556 13.3031 2.25167 14 3.11111 14H10.8889C11.7476 14 12.4444 13.3031 12.4444 12.4444V7.77778ZM10.8889 3.11111V3.88889C10.8889 4.31822 10.5404 4.66667 10.1111 4.66667C9.68178 4.66667 9.33333 4.31822 9.33333 3.88889V3.11111H4.66667V3.88889C4.66667 4.31822 4.31822 4.66667 3.88889 4.66667C3.45956 4.66667 3.11111 4.31822 3.11111 3.88889V3.11111C2.25167 3.11111 1.55556 3.80722 1.55556 4.66667V6.22222H12.4444V4.66667C12.4444 3.80722 11.7476 3.11111 10.8889 3.11111Z" fill="#909BA5"/>
</svg>
