<svg width="20" height="20" viewBox="0 0 20 20" fill="none" xmlns="http://www.w3.org/2000/svg">
<path d="M19.9477 7.67099C19.816 7.26601 19.4568 6.9793 19.0335 6.941L13.2601 6.41685L10.9784 1.07496C10.81 0.682499 10.4267 0.429199 10 0.429199C9.57338 0.429199 9.18992 0.682499 9.02253 1.07496L6.74085 6.41685L0.96652 6.941C0.543234 6.98006 0.184799 7.26678 0.0523506 7.67099C-0.0793349 8.07596 0.0422796 8.52015 0.362414 8.80092L4.72665 12.6277L3.43986 18.2952C3.34571 18.712 3.50746 19.1429 3.85323 19.3928C4.03908 19.5279 4.25744 19.5953 4.47656 19.5953C4.66485 19.5953 4.8533 19.5453 5.02161 19.4446L10 16.4678L14.9775 19.4446C15.3427 19.6628 15.8018 19.6428 16.1468 19.3928C16.4926 19.1429 16.6543 18.712 16.5602 18.2952L15.2734 12.6277L19.6376 8.80092C19.9576 8.52015 20.0794 8.07688 19.9477 7.67099Z" fill="white"/>
</svg>
