<svg width="37" height="36" viewBox="0 0 37 36" fill="none" xmlns="http://www.w3.org/2000/svg">
<g clip-path="url(#clip0)">
<path d="M15.0619 12.5308L13.2485 23.1721H16.1487L17.9635 12.5308H15.0619Z" fill="#909BA5"/>
<path d="M10.8171 12.5428L7.97664 19.7998L7.67379 18.7041C7.1136 17.3838 5.52329 15.4877 3.65625 14.2927L6.25355 23.1669L9.32228 23.1617L13.8896 12.5405L10.8171 12.5428Z" fill="#909BA5"/>
<path d="M6.5727 13.3045C6.40412 12.6563 5.91554 12.4631 5.30911 12.4399H0.812687L0.775391 12.6518C4.27451 13.5006 6.58986 15.546 7.55061 18.0053L6.5727 13.3045Z" fill="#909BA5"/>
<path d="M23.8417 14.571C24.7906 14.5561 25.4783 14.7634 26.0124 14.9783L26.2742 15.1013L26.6665 12.795C26.0922 12.5794 25.1919 12.3481 24.0685 12.3481C21.2027 12.3481 19.1827 13.7915 19.167 15.8599C19.1484 17.3883 20.6059 18.2417 21.7069 18.7511C22.837 19.2733 23.2159 19.6052 23.2107 20.0714C23.2017 20.7838 22.3096 21.1105 21.4764 21.1105C20.315 21.1105 19.6981 20.9501 18.7456 20.5533L18.3719 20.3832L17.9639 22.765C18.6427 23.0626 19.8951 23.3184 21.1952 23.3319C24.2438 23.3319 26.225 21.9057 26.2458 19.6955C26.2585 18.4863 25.485 17.5636 23.8089 16.8065C22.7945 16.3127 22.1739 15.9845 22.1798 15.4862C22.1798 15.0439 22.7064 14.571 23.8417 14.571Z" fill="#909BA5"/>
<path d="M34.1094 12.5425H31.8686C31.1727 12.5425 30.655 12.7319 30.3492 13.4257L26.043 23.1778H29.0886C29.0886 23.1778 29.5854 21.8665 29.698 21.5793C30.0314 21.5793 32.9905 21.5838 33.4119 21.5838C33.4985 21.9553 33.7655 23.1778 33.7655 23.1778H36.4561L34.1094 12.5425ZM30.5327 19.4012C30.7714 18.7903 31.6881 16.4272 31.6881 16.4272C31.6724 16.4563 31.9246 15.8119 32.0745 15.4113L32.2699 16.3288C32.2699 16.3288 32.8256 18.8694 32.942 19.4012H30.5327Z" fill="#909BA5"/>
</g>
<defs>
<clipPath id="clip0">
<rect width="35.6805" height="35.6807" fill="white" transform="translate(0.775391)"/>
</clipPath>
</defs>
</svg>
