<svg width="49" height="37" viewBox="0 0 49 37" fill="none" xmlns="http://www.w3.org/2000/svg">
<path d="M47.0859 21.1914C48.1431 21.1914 49 20.3343 49 19.2773V8.16406C49 3.94241 45.5654 0.507812 41.3438 0.507812H7.65625C3.43459 0.507812 0 3.94241 0 8.16406V28.8359C0 33.0576 3.43459 36.4922 7.65625 36.4922H41.3438C45.5654 36.4922 49 33.0576 49 28.8359C49 27.7788 48.1431 26.9219 47.0859 26.9219C46.0288 26.9219 45.1719 27.7788 45.1719 28.8359C45.1719 30.9468 43.4546 32.6641 41.3438 32.6641H7.65625C5.54542 32.6641 3.82812 30.9468 3.82812 28.8359V16.3105H8.8468C9.63692 18.5383 11.7645 20.1386 14.2598 20.1386C14.9996 20.1386 15.7257 19.9661 16.4159 19.688C15.7134 21.2059 14.6591 22.7382 13.0791 23.8254C12.2082 24.4246 11.988 25.6164 12.5872 26.4872C12.9584 27.0267 13.5568 27.3165 14.1658 27.3165C14.5397 27.3165 14.9176 27.2071 15.249 26.9791C17.4593 25.4583 18.9055 23.3833 19.8513 21.3605C20.8053 23.3831 22.2578 25.4585 24.4677 26.9791C24.7992 27.2072 25.177 27.3165 25.551 27.3165C26.1598 27.3165 26.7584 27.0267 27.1296 26.4872C27.7288 25.6163 27.5086 24.4246 26.6377 23.8254C25.066 22.744 24.0078 21.2091 23.2967 19.6862C23.9881 19.9653 24.7156 20.1386 25.457 20.1386C27.9523 20.1386 30.0798 18.5383 30.87 16.3105H45.1719V19.2773C45.1719 20.3343 46.0288 21.1914 47.0859 21.1914ZM14.2598 16.3105C13.2044 16.3105 12.3457 15.4518 12.3457 14.3964C12.3457 13.341 13.2044 12.4824 14.2598 12.4824C15.1406 12.4824 16.4123 13.4107 17.4235 14.394C16.4428 15.3451 15.1595 16.3105 14.2598 16.3105ZM25.457 16.3105C24.5762 16.3105 23.3045 15.3822 22.2933 14.3988C23.274 13.4478 24.5573 12.4824 25.457 12.4824C26.5124 12.4824 27.3711 13.341 27.3711 14.3964C27.3711 15.4519 26.5124 16.3105 25.457 16.3105ZM30.87 12.4824C30.0799 10.2546 27.9523 8.65425 25.457 8.65425C23.2836 8.65425 21.2288 10.1416 19.8584 11.4271C18.488 10.1415 16.4332 8.65425 14.2598 8.65425C11.7645 8.65425 9.63702 10.2546 8.8468 12.4824H3.82812V8.16406C3.82812 6.05323 5.54542 4.33594 7.65625 4.33594H41.3438C43.4546 4.33594 45.1719 6.05323 45.1719 8.16406V12.4824H30.87Z" fill="white"/>
</svg>
