<svg width="41" height="41" viewBox="0 0 41 41" fill="none" xmlns="http://www.w3.org/2000/svg">
<path d="M32.3081 16.4708C36.8564 16.4708 40.5435 12.7837 40.5435 8.23539C40.5435 3.68711 36.8564 0 32.3081 0C27.7598 0 24.0727 3.68711 24.0727 8.23539C24.0727 12.7837 27.7598 16.4708 32.3081 16.4708Z" fill="#EE3E15"/>
<path d="M32.9416 31.6746H29.1406C28.4409 31.6746 27.8736 32.2418 27.8736 32.9415C27.8736 33.6413 28.4409 34.2085 29.1406 34.2085H32.9416C33.6413 34.2085 34.2086 33.6413 34.2086 32.9415C34.2086 32.2418 33.6413 31.6746 32.9416 31.6746Z" fill="#EE3E15"/>
<path d="M9.50238 0C7.62299 0 5.7858 0.557305 4.22315 1.60144C2.66049 2.64557 1.44254 4.12964 0.72333 5.86598C0.00411725 7.60231 -0.184062 9.51292 0.18259 11.3562C0.549241 13.1995 1.45426 14.8926 2.78319 16.2216C4.11212 17.5505 5.80528 18.4555 7.64856 18.8222C9.49184 19.1888 11.4025 19.0006 13.1388 18.2814C14.8751 17.5622 16.3592 16.3443 17.4033 14.7816C18.4475 13.219 19.0048 11.3818 19.0048 9.50238C19.0048 6.98219 18.0036 4.56522 16.2216 2.78318C14.4395 1.00114 12.0226 0 9.50238 0ZM9.50238 16.4708C8.12416 16.4708 6.77689 16.0621 5.63094 15.2964C4.48499 14.5307 3.59183 13.4424 3.06441 12.1691C2.53699 10.8958 2.39899 9.49465 2.66787 8.14291C2.93675 6.79117 3.60042 5.54952 4.57497 4.57497C5.54952 3.60042 6.79117 2.93674 8.14291 2.66786C9.49465 2.39899 10.8958 2.53698 12.1691 3.06441C13.4424 3.59183 14.5307 4.48499 15.2964 5.63094C16.0621 6.77689 16.4708 8.12416 16.4708 9.50238C16.4674 11.3495 15.7322 13.12 14.4261 14.4261C13.12 15.7322 11.3495 16.4674 9.50238 16.4708Z" fill="#2C113E"/>
<path d="M32.9416 3.8009H25.3397C24.3316 3.8009 23.3648 4.20136 22.652 4.91418C21.9392 5.62699 21.5387 6.59378 21.5387 7.60185V19.0047H32.9416C33.9497 19.0047 34.9165 18.6043 35.6293 17.8914C36.3421 17.1786 36.7425 16.2118 36.7425 15.2038V7.60185C36.7425 6.59378 36.3421 5.62699 35.6293 4.91418C34.9165 4.20136 33.9497 3.8009 32.9416 3.8009ZM34.2086 15.2038C34.2086 15.5398 34.0751 15.862 33.8375 16.0996C33.5999 16.3373 33.2776 16.4707 32.9416 16.4707H24.0727V7.60185C24.0727 7.26583 24.2062 6.94357 24.4438 6.70596C24.6814 6.46836 25.0037 6.33487 25.3397 6.33487H32.9416C33.2776 6.33487 33.5999 6.46836 33.8375 6.70596C34.0751 6.94357 34.2086 7.26583 34.2086 7.60185V15.2038Z" fill="#2C113E"/>
<path d="M7.01909 21.5387C6.16558 21.5387 5.34704 21.8777 4.74352 22.4813C4.14 23.0848 3.80095 23.9033 3.80095 24.7568V33.5244C3.80095 34.3779 4.14 35.1964 4.74352 35.7999C5.34704 36.4035 6.16558 36.7425 7.01909 36.7425H15.7866C16.6401 36.7425 17.4587 36.4035 18.0622 35.7999C18.6657 35.1964 19.0048 34.3779 19.0048 33.5244V21.5387H7.01909ZM16.4708 33.5244C16.4708 33.7058 16.3987 33.8798 16.2704 34.0081C16.1421 34.1365 15.9681 34.2085 15.7866 34.2085H7.01909C6.83763 34.2085 6.66361 34.1365 6.5353 34.0081C6.407 33.8798 6.33491 33.7058 6.33491 33.5244V24.7568C6.33491 24.5754 6.407 24.4014 6.5353 24.2731C6.66361 24.1447 6.83763 24.0727 7.01909 24.0727H16.4708V33.5244Z" fill="#2C113E"/>
<path d="M36.7425 21.5387H21.5387V36.7425C21.5387 37.7506 21.9392 38.7174 22.652 39.4302C23.3648 40.143 24.3316 40.5434 25.3397 40.5434H36.7425C37.7506 40.5434 38.7174 40.143 39.4302 39.4302C40.143 38.7174 40.5435 37.7506 40.5435 36.7425V25.3396C40.5435 24.3316 40.143 23.3648 39.4302 22.652C38.7174 21.9392 37.7506 21.5387 36.7425 21.5387ZM38.0095 36.7425C38.0095 37.0785 37.876 37.4008 37.6384 37.6384C37.4008 37.876 37.0786 38.0095 36.7425 38.0095H25.3397C25.0037 38.0095 24.6814 37.876 24.4438 37.6384C24.2062 37.4008 24.0727 37.0785 24.0727 36.7425V24.0727H36.7425C37.0786 24.0727 37.4008 24.2061 37.6384 24.4438C37.876 24.6814 38.0095 25.0036 38.0095 25.3396V36.7425Z" fill="#2C113E"/>
</svg>
