<svg width="24" height="24" viewBox="0 0 24 24" fill="none" xmlns="http://www.w3.org/2000/svg">
<g clip-path="url(#clip0)">
<path d="M12 0C9.62663 0 7.30655 0.703788 5.33316 2.02236C3.35977 3.34094 1.8217 5.21509 0.913451 7.4078C0.00519945 9.60051 -0.232441 12.0133 0.230582 14.3411C0.693605 16.6689 1.83649 18.8071 3.51472 20.4853C5.19295 22.1635 7.33115 23.3064 9.65892 23.7694C11.9867 24.2324 14.3995 23.9948 16.5922 23.0866C18.7849 22.1783 20.6591 20.6402 21.9776 18.6668C23.2962 16.6935 24 14.3734 24 12C24 8.8174 22.7357 5.76516 20.4853 3.51472C18.2349 1.26428 15.1826 0 12 0V0ZM12 18.39C11.2729 18.3905 10.5491 18.2928 9.84819 18.0995L7.2941 19.5V16.8518C5.59091 15.5795 4.50001 13.6364 4.50001 11.445C4.50001 7.60909 7.85864 4.5 12 4.5C16.1414 4.5 19.5 7.61045 19.5 11.445C19.5 15.2795 16.1414 18.39 12 18.39V18.39Z" fill="#909BA5"/>
<path d="M16.8448 9.50046L12.7443 13.8491L10.8352 11.8146L7.1084 13.8518L11.2089 9.50046L13.1657 11.535L16.8448 9.50046Z" fill="#909BA5"/>
</g>
<defs>
<clipPath id="clip0">
<rect width="24" height="24" fill="white"/>
</clipPath>
</defs>
</svg>
