<svg width="21" height="20" viewBox="0 0 21 20" fill="none" xmlns="http://www.w3.org/2000/svg">
<g clip-path="url(#clip0)">
<path d="M17.7738 7.23488C17.7738 3.24555 14.5118 0 10.5021 0C6.49254 0 3.23047 3.24555 3.23047 7.23488C3.23047 10.0946 4.9068 12.5722 7.33316 13.7459L7.89242 15.7021H7.43527C7.32004 15.7021 7.2107 15.753 7.13648 15.8412C7.0623 15.9293 7.03074 16.0457 7.05035 16.1593L7.6575 19.6759C7.68984 19.8632 7.85234 20 8.04242 20H12.9619C13.152 20 13.3145 19.8632 13.3468 19.6759L13.954 16.1593C13.9736 16.0457 13.942 15.9293 13.8679 15.8412C13.7936 15.753 13.6843 15.7021 13.5691 15.7021H13.1119L13.6711 13.7459C16.0975 12.5722 17.7738 10.0946 17.7738 7.23488ZM10.8928 13.6535V0.81625C11.7207 0.965039 12.4988 1.58477 13.1162 2.59848C13.8669 3.83082 14.2802 5.47738 14.2802 7.23488C14.2802 8.99238 13.8669 10.639 13.1162 11.8713C12.4988 12.885 11.7207 13.5048 10.8928 13.6535ZM10.1115 0.81625V13.6535C9.28355 13.5047 8.50547 12.885 7.88805 11.8713C7.13742 10.6389 6.72406 8.99238 6.72406 7.23488C6.72406 5.47738 7.13742 3.83078 7.88805 2.59848C8.50547 1.58473 9.28355 0.965 10.1115 0.81625ZM16.9926 7.23488C16.9926 9.84688 15.4239 12.1014 13.1741 13.116C13.3904 12.8682 13.5943 12.5883 13.7834 12.2777C14.6076 10.9246 15.0614 9.13375 15.0614 7.23488C15.0614 5.33602 14.6076 3.54512 13.7835 2.19207C13.5943 1.88145 13.3904 1.60152 13.1741 1.35375C15.4239 2.36832 16.9926 4.62289 16.9926 7.23488ZM4.01172 7.23488C4.01172 4.62289 5.58043 2.36832 7.83023 1.35375C7.61395 1.60152 7.41004 1.88145 7.22086 2.19207C6.39672 3.54512 5.94285 5.33602 5.94285 7.23488C5.94285 9.13375 6.39672 10.9246 7.22086 12.2777C7.41004 12.5883 7.61395 12.8682 7.83023 13.116C5.58039 12.1014 4.01172 9.84688 4.01172 7.23488ZM8.25125 14.1151C8.84195 14.3068 9.4657 14.4252 10.1115 14.4594V15.7021H8.70496L8.25125 14.1151ZM12.6329 19.2188H8.37137L7.89906 16.4834H13.1052L12.6329 19.2188ZM12.2993 15.7021H10.8928V14.4594C11.5386 14.4252 12.1623 14.3068 12.753 14.1151L12.2993 15.7021Z" fill="white"/>
</g>
<defs>
<clipPath id="clip0">
<rect width="20" height="20" fill="white" transform="translate(0.5)"/>
</clipPath>
</defs>
</svg>
