<svg width="90" height="90" viewBox="0 0 90 90" fill="none" xmlns="http://www.w3.org/2000/svg">
<path d="M59.2383 0H30.7617C13.7997 0 0 13.7997 0 30.7617V59.2383C0 76.2003 13.7997 90 30.7617 90H59.2383C76.2003 90 90 76.2003 90 59.2383V30.7617C90 13.7997 76.2003 0 59.2383 0ZM84.7266 59.2383C84.7266 73.2925 73.2925 84.7266 59.2383 84.7266H30.7617C16.7075 84.7266 5.27344 73.2925 5.27344 59.2383V30.7617C5.27344 16.7075 16.7075 5.27344 30.7617 5.27344H59.2383C73.2925 5.27344 84.7266 16.7075 84.7266 30.7617V59.2383Z" fill="white"/>
<path d="M60.5464 39.8845L38.7497 25.3217C34.6653 22.5929 29.1797 25.5274 29.1797 30.4373V59.5626C29.1797 64.5005 34.6985 67.3847 38.7499 64.6784L60.5466 50.1156C64.1853 47.6846 64.1957 42.3225 60.5464 39.8845ZM57.6169 45.7309L35.8204 60.2935C35.2371 60.6831 34.4531 60.2719 34.4531 59.5628V30.4373C34.4531 29.7371 35.2297 29.3118 35.8204 29.7064L57.6171 44.2691C58.1389 44.6179 58.1395 45.3817 57.6169 45.7309Z" fill="white"/>
</svg>
