<svg width="40" height="38" viewBox="0 0 40 38" fill="none" xmlns="http://www.w3.org/2000/svg">
<path d="M6.76605 29.4358C6.60519 29.4358 6.45871 29.3262 6.41832 29.1434V26.3885C10.4048 26.6608 9.56902 21.4771 9.56902 21.4771H5.96785C5.96785 21.4771 5.96777 21.4771 5.96777 21.4771V17.7505H12.6658C12.6658 17.7505 12.6659 17.7505 12.6659 17.7506V21.8383C12.6659 22.0031 12.6567 24.0033 12.6396 24.1719C12.3775 26.7558 10.388 28.8328 7.83269 29.2973C7.44715 29.3674 7.08472 29.4185 6.78558 29.4353C6.77808 29.4357 6.77207 29.4358 6.76605 29.4358Z" fill="#EE3E15"/>
<path d="M16.0805 29.4358C15.9196 29.4358 15.7732 29.3262 15.7328 29.1434V26.3885C19.7193 26.6608 18.8835 21.4771 18.8835 21.4771H15.2823C15.2823 21.4771 15.2822 21.4771 15.2822 21.4771V17.7505H21.9803C21.9803 17.7505 21.9804 17.7505 21.9804 17.7506V21.8383C21.9804 22.0031 21.9711 24.0033 21.954 24.1719C21.6919 26.7558 19.7025 28.8328 17.1472 29.2973C16.7616 29.3674 16.3992 29.4185 16.1 29.4353C16.0926 29.4357 16.0865 29.4358 16.0805 29.4358Z" fill="#EE3E15"/>
<path d="M37.01 0.771606H15.0427C13.394 0.771606 12.0527 2.11497 12.0527 3.76629V11.521H2.99C1.34133 11.521 0 12.8643 0 14.5157V31.7521C0 33.4033 1.34133 34.7467 2.99 34.7467H3.46141C4.36641 34.7467 5.18508 35.3188 5.49859 36.1702L5.69984 36.717C5.78383 36.9451 5.96922 37.1212 6.20141 37.1933C6.27734 37.2168 6.35539 37.2284 6.43297 37.2284C6.59289 37.2284 6.75094 37.1793 6.88445 37.0847L9.62344 35.1454C9.99187 34.8846 10.425 34.7467 10.8759 34.7467H24.9572C26.6059 34.7467 27.9473 33.4033 27.9473 31.7521V23.2161H29.1239C29.5749 23.2161 30.008 23.354 30.3764 23.6149L33.1154 25.5541C33.2489 25.6487 33.407 25.6978 33.5669 25.6978C33.6445 25.6978 33.7225 25.6862 33.7984 25.6627C34.0306 25.5906 34.216 25.4145 34.3 25.1864L34.5012 24.6397C34.8147 23.7882 35.6334 23.2161 36.5384 23.2161H37.0098C38.6586 23.2161 39.9998 21.8728 39.9998 20.2214V3.76629C40 2.11497 38.6587 0.771606 37.01 0.771606ZM26.3849 31.7521C26.3849 32.5417 25.7445 33.1842 24.9573 33.1842H10.8761C10.0998 33.1842 9.35453 33.4214 8.7207 33.8702L6.79281 35.2352C6.1632 33.993 4.87367 33.1842 3.46148 33.1842H2.99008C2.20297 33.1842 1.56258 32.5417 1.56258 31.7521V14.5157C1.56258 13.726 2.20297 13.0835 2.99008 13.0835H24.9573C25.7445 13.0835 26.3849 13.726 26.3849 14.5157V31.7521ZM38.4375 20.2214C38.4375 21.0111 37.7971 21.6536 37.01 21.6536H36.5386C35.1265 21.6536 33.8369 22.4624 33.2073 23.7046L31.2795 22.3396C30.6457 21.8909 29.9004 21.6536 29.124 21.6536H27.9473V14.5157C27.9473 13.9972 27.8151 13.5092 27.5827 13.0835H33.0874C33.5188 13.0835 33.8687 12.7336 33.8687 12.3022C33.8687 11.8708 33.5188 11.521 33.0874 11.521H13.6151V3.76629C13.6151 2.97661 14.2555 2.33411 15.0427 2.33411H37.0099C37.7971 2.33411 38.4375 2.97653 38.4375 3.76629V20.2214Z" fill="#2C113E"/>
<path d="M33.0872 6.5979H18.9648C18.5334 6.5979 18.1836 6.94774 18.1836 7.37915C18.1836 7.81056 18.5334 8.1604 18.9648 8.1604H33.0872C33.5186 8.1604 33.8684 7.81056 33.8684 7.37915C33.8684 6.94774 33.5186 6.5979 33.0872 6.5979Z" fill="#2C113E"/>
</svg>
