<svg width="40" height="40" viewBox="0 0 40 40" fill="none" xmlns="http://www.w3.org/2000/svg">
<path d="M6.76605 30.4358C6.60519 30.4358 6.45871 30.3262 6.41832 30.1434V27.3885C10.4048 27.6608 9.56902 22.4772 9.56902 22.4772H5.96785C5.96785 22.4772 5.96777 22.4772 5.96777 22.4771V18.7505H12.6658C12.6658 18.7505 12.6659 18.7505 12.6659 18.7506V22.8383C12.6659 23.0032 12.6567 25.0033 12.6396 25.1719C12.3775 27.7558 10.388 29.8329 7.83269 30.2973C7.44715 30.3674 7.08472 30.4185 6.78558 30.4353C6.77808 30.4358 6.77207 30.4358 6.76605 30.4358Z" fill="#EE3E15"/>
<path d="M16.0805 30.4358C15.9196 30.4358 15.7732 30.3262 15.7328 30.1434V27.3885C19.7193 27.6608 18.8835 22.4772 18.8835 22.4772H15.2823C15.2823 22.4772 15.2822 22.4772 15.2822 22.4771V18.7505H21.9803C21.9803 18.7505 21.9804 18.7505 21.9804 18.7506V22.8383C21.9804 23.0032 21.9711 25.0033 21.954 25.1719C21.6919 27.7558 19.7025 29.8329 17.1472 30.2973C16.7616 30.3674 16.3992 30.4185 16.1 30.4353C16.0926 30.4358 16.0865 30.4358 16.0805 30.4358Z" fill="#EE3E15"/>
<path d="M37.01 1.77161H15.0427C13.394 1.77161 12.0527 3.11497 12.0527 4.76629V12.521H2.99C1.34133 12.521 0 13.8643 0 15.5157V32.7521C0 34.4033 1.34133 35.7467 2.99 35.7467H3.46141C4.36641 35.7467 5.18508 36.3188 5.49859 37.1702L5.69984 37.717C5.78383 37.9451 5.96922 38.1212 6.20141 38.1933C6.27734 38.2168 6.35539 38.2284 6.43297 38.2284C6.59289 38.2284 6.75094 38.1793 6.88445 38.0847L9.62344 36.1454C9.99187 35.8846 10.425 35.7467 10.8759 35.7467H24.9572C26.6059 35.7467 27.9473 34.4033 27.9473 32.7521V24.2161H29.1239C29.5749 24.2161 30.008 24.354 30.3764 24.6149L33.1154 26.5541C33.2489 26.6487 33.407 26.6978 33.5669 26.6978C33.6445 26.6978 33.7225 26.6862 33.7984 26.6627C34.0306 26.5906 34.216 26.4145 34.3 26.1864L34.5012 25.6397C34.8147 24.7882 35.6334 24.2161 36.5384 24.2161H37.0098C38.6586 24.2161 39.9998 22.8728 39.9998 21.2214V4.76629C40 3.11497 38.6587 1.77161 37.01 1.77161ZM26.3849 32.7521C26.3849 33.5417 25.7445 34.1842 24.9573 34.1842H10.8761C10.0998 34.1842 9.35453 34.4214 8.7207 34.8702L6.79281 36.2352C6.1632 34.993 4.87367 34.1842 3.46148 34.1842H2.99008C2.20297 34.1842 1.56258 33.5417 1.56258 32.7521V15.5157C1.56258 14.726 2.20297 14.0835 2.99008 14.0835H24.9573C25.7445 14.0835 26.3849 14.726 26.3849 15.5157V32.7521ZM38.4375 21.2214C38.4375 22.0111 37.7971 22.6536 37.01 22.6536H36.5386C35.1265 22.6536 33.8369 23.4624 33.2073 24.7046L31.2795 23.3396C30.6457 22.8909 29.9004 22.6536 29.124 22.6536H27.9473V15.5157C27.9473 14.9972 27.8151 14.5092 27.5827 14.0835H33.0874C33.5188 14.0835 33.8687 13.7336 33.8687 13.3022C33.8687 12.8708 33.5188 12.521 33.0874 12.521H13.6151V4.76629C13.6151 3.97661 14.2555 3.33411 15.0427 3.33411H37.0099C37.7971 3.33411 38.4375 3.97653 38.4375 4.76629V21.2214Z" fill="#2C113E"/>
<path d="M33.0872 7.59787H18.9648C18.5334 7.59787 18.1836 7.94771 18.1836 8.37912C18.1836 8.81053 18.5334 9.16037 18.9648 9.16037H33.0872C33.5186 9.16037 33.8684 8.81053 33.8684 8.37912C33.8684 7.94771 33.5186 7.59787 33.0872 7.59787Z" fill="#2C113E"/>
</svg>
