<svg width="24" height="24" viewBox="0 0 24 24" fill="none" xmlns="http://www.w3.org/2000/svg">
<path d="M14.1887 10.2947C13.1615 10.2947 12.7028 10.8592 12.4461 11.2556V10.432H10.5117C10.5369 10.9772 10.5117 16.2521 10.5117 16.2521H12.4461V13.0006C12.4461 12.827 12.4573 12.6525 12.5095 12.5283C12.6496 12.1803 12.9677 11.8202 13.5023 11.8202C14.2022 11.8202 14.4821 12.3538 14.4821 13.1369V16.2507H16.4165H16.417V12.9131C16.416 11.1265 15.4614 10.2947 14.1887 10.2947ZM12.4447 11.2759H12.4326C12.4365 11.2691 12.4423 11.2629 12.4447 11.2561V11.2759Z" fill="#909BA5"/>
<path d="M7.50391 10.4318H9.43833V16.2519H7.50391V10.4318Z" fill="#909BA5"/>
<path d="M12 0C5.38323 0 0 5.38323 0 12C0 18.6163 5.38323 24 12 24C18.6163 24 24 18.6163 24 12C24 5.38323 18.6173 0 12 0ZM18.3635 17.4277C18.3635 17.9381 17.9401 18.3509 17.4166 18.3509H6.50173C5.9797 18.3509 5.55579 17.9381 5.55579 17.4277V6.38572C5.55579 5.87578 5.9797 5.4625 6.50173 5.4625H17.4166C17.9396 5.4625 18.3635 5.87626 18.3635 6.38572V17.4277Z" fill="#909BA5"/>
<path d="M8.48496 7.62598C7.82372 7.62598 7.39062 8.06004 7.39062 8.63137C7.39062 9.18966 7.81067 9.63677 8.45934 9.63677H8.47191C9.14669 9.63677 9.56673 9.18966 9.56673 8.63137C9.55368 8.06052 9.14717 7.62598 8.48496 7.62598Z" fill="#909BA5"/>
</svg>
