<svg width="55" height="49" viewBox="0 0 55 49" fill="none" xmlns="http://www.w3.org/2000/svg">
<path d="M17.4623 40.8239H14.2065C13.389 40.8239 12.7266 41.4863 12.7266 42.3038C12.7266 43.1212 13.389 43.7837 14.2065 43.7837H17.4623C18.2797 43.7837 18.9422 43.1212 18.9422 42.3038C18.9422 41.4865 18.2797 40.8239 17.4623 40.8239Z" fill="white"/>
<path d="M50.8968 22.3642H31.6683V5.1064C31.6683 2.65844 29.6766 0.666687 27.2286 0.666687H4.43971C1.99175 0.666687 0 2.65824 0 5.1064V44.2248C0 46.6727 1.99175 48.6645 4.43971 48.6645H25.7426C25.8391 48.6844 25.9393 48.6947 26.0418 48.6947H50.8968C52.8008 48.6947 54.3499 47.1455 54.3499 45.2416V25.8175C54.3499 23.9134 52.801 22.3642 50.8968 22.3642ZM50.692 25.3242L38.3376 35.7076C38.0558 35.9446 37.5029 35.9446 37.2209 35.7076L31.6683 31.0408V25.3242H50.692V25.3242ZM4.43971 3.62649H27.2286C28.0448 3.62649 28.7085 4.29028 28.7085 5.1064V35.8752H2.95981V5.1064C2.95981 4.29028 3.62359 3.62649 4.43971 3.62649ZM2.95981 44.2248V38.835H28.7085V44.2248C28.7085 45.0409 28.0448 45.7047 27.2286 45.7047H4.43971C3.62359 45.7047 2.95981 45.0407 2.95981 44.2248ZM50.8968 45.7349H31.4033C31.5746 45.2631 31.6683 44.7548 31.6683 44.2248V34.9069L35.3164 37.9733C36.007 38.5538 36.893 38.8439 37.7794 38.8439C38.6653 38.8439 39.5517 38.5536 40.2419 37.9733L51.3901 28.6035V45.2416C51.3901 45.5089 51.1644 45.7349 50.8968 45.7349Z" fill="white"/>
</svg>
