<svg width="18" height="24" viewBox="0 0 18 24" fill="none" xmlns="http://www.w3.org/2000/svg">
<path d="M17.7255 8.68186C17.7255 3.89466 13.811 0 8.99945 0C4.18792 0 0.273438 3.89466 0.273438 8.68186C0.273438 12.1136 2.28503 15.0866 5.19667 16.4951L5.86778 18.8426H5.3192C5.18092 18.8426 5.04972 18.9036 4.96066 19.0094C4.87164 19.1152 4.83377 19.2548 4.8573 19.3911L5.58587 23.611C5.62469 23.8358 5.81969 24 6.04778 24H11.9512C12.1793 24 12.3743 23.8358 12.4131 23.611L13.1417 19.3911C13.1652 19.2549 13.1273 19.1152 13.0383 19.0094C12.9492 18.9036 12.818 18.8426 12.6797 18.8426H12.1312L12.8022 16.4951C15.7139 15.0866 17.7255 12.1136 17.7255 8.68186ZM9.4682 16.3842V0.9795C10.4618 1.15805 11.3955 1.90172 12.1364 3.11817C13.0371 4.59698 13.5332 6.57286 13.5332 8.68186C13.5332 10.7909 13.0371 12.7668 12.1364 14.2455C11.3955 15.462 10.4618 16.2057 9.4682 16.3842ZM8.5307 0.9795V16.3842C7.53714 16.2057 6.60344 15.462 5.86253 14.2455C4.96178 12.7667 4.46575 10.7909 4.46575 8.68186C4.46575 6.57286 4.96178 4.59694 5.86253 3.11817C6.60344 1.90167 7.53714 1.158 8.5307 0.9795ZM16.788 8.68186C16.788 11.8162 14.9055 14.5217 12.2057 15.7392C12.4653 15.4419 12.71 15.106 12.937 14.7332C13.926 13.1096 14.4706 10.9605 14.4706 8.68186C14.4706 6.40322 13.926 4.25414 12.937 2.63048C12.71 2.25773 12.4653 1.92183 12.2058 1.6245C14.9056 2.84198 16.788 5.54747 16.788 8.68186ZM1.21094 8.68186C1.21094 5.54747 3.09339 2.84198 5.79316 1.6245C5.53361 1.92183 5.28892 2.25773 5.06191 2.63048C4.07294 4.25414 3.5283 6.40322 3.5283 8.68186C3.5283 10.9605 4.07294 13.1096 5.06191 14.7332C5.28892 15.106 5.53361 15.4419 5.79316 15.7392C3.09334 14.5217 1.21094 11.8162 1.21094 8.68186ZM6.29837 16.9381C7.00722 17.1682 7.75572 17.3103 8.5307 17.3513V18.8426H6.84283L6.29837 16.9381ZM11.5564 23.0625H6.44251L5.87575 19.7801H12.1231L11.5564 23.0625ZM11.1561 18.8426H9.4682V17.3513C10.2432 17.3103 10.9916 17.1682 11.7005 16.9381L11.1561 18.8426Z" fill="#EE3E15"/>
</svg>
