<svg width="37" height="41" viewBox="0 0 37 41" fill="none" xmlns="http://www.w3.org/2000/svg">
<path d="M28.3081 16.4708C32.8564 16.4708 36.5435 12.7837 36.5435 8.23539C36.5435 3.68711 32.8564 0 28.3081 0C23.7598 0 20.0727 3.68711 20.0727 8.23539C20.0727 12.7837 23.7598 16.4708 28.3081 16.4708Z" fill="#EE3E15"/>
<g clip-path="url(#clip0)">
<path d="M18.83 25.0007L31.4136 12.4171C32.1954 11.6359 32.1954 10.3685 31.4136 9.58736C30.6318 8.80556 29.3657 8.80556 28.5839 9.58736L16.0003 22.171L3.41606 9.58736C2.63426 8.80556 1.36816 8.80556 0.586354 9.58736C-0.195451 10.3685 -0.195451 11.6359 0.586354 12.4171L13.1706 25.0007L0.586354 37.5843C-0.195451 38.3654 -0.195451 39.6328 0.586354 40.414C0.977257 40.8042 1.48957 40.9997 2.00121 40.9997C2.51285 40.9997 3.02516 40.8042 3.41606 40.4133L16.0003 27.8297L28.5839 40.4133C28.9748 40.8042 29.4871 40.9997 29.9988 40.9997C30.5104 40.9997 31.0227 40.8042 31.4136 40.4133C32.1954 39.6322 32.1954 38.3647 31.4136 37.5836L18.83 25.0007Z" fill="#2C113E"/>
</g>
<path d="M28.9416 31.6746H25.1406C24.4409 31.6746 23.8737 32.2418 23.8737 32.9415C23.8737 33.6413 24.4409 34.2085 25.1406 34.2085H28.9416C29.6413 34.2085 30.2086 33.6413 30.2086 32.9415C30.2086 32.2418 29.6413 31.6746 28.9416 31.6746Z" fill="#EE3E15"/>
<defs>
<clipPath id="clip0">
<rect width="32" height="32" fill="white" transform="translate(0 9)"/>
</clipPath>
</defs>
</svg>
