<svg width="302" height="63" viewBox="0 0 302 63" fill="none" xmlns="http://www.w3.org/2000/svg">
<path d="M0 46.4692V21.6914H8.67901C11.6855 21.6914 13.9658 22.27 15.5201 23.4272C17.0744 24.5731 17.8515 26.2578 17.8515 28.4815C17.8515 29.6954 17.5395 30.7675 16.9156 31.6978C16.2916 32.6168 15.4237 33.2918 14.3119 33.7229C15.5825 34.0406 16.5809 34.6816 17.307 35.646C18.0444 36.6103 18.4131 37.7902 18.4131 39.1856C18.4131 41.5681 17.653 43.372 16.1327 44.5973C14.6125 45.8226 12.4456 46.4465 9.632 46.4692H0ZM5.1053 35.68V42.368H9.47884C10.6814 42.368 11.6174 42.0843 12.2868 41.5171C12.9675 40.9385 13.3078 40.1443 13.3078 39.1346C13.3078 36.8656 12.1336 35.714 9.78516 35.68H5.1053ZM5.1053 32.0722H8.88322C11.4586 32.0268 12.7462 31.0001 12.7462 28.992C12.7462 27.8688 12.4172 27.0633 11.7592 26.5755C11.1125 26.0763 10.0858 25.8267 8.67901 25.8267H5.1053V32.0722Z" fill="#2C113E"/>
<path d="M36.2476 41.3639H27.2963L25.5946 46.4692H20.1659L29.3895 21.6914H34.1204L43.395 46.4692H37.9664L36.2476 41.3639ZM28.6748 37.2286H34.8692L31.755 27.9539L28.6748 37.2286Z" fill="#2C113E"/>
<path d="M50.8147 42.368H61.655V46.4692H45.7094V21.6914H50.8147V42.368Z" fill="#2C113E"/>
<path d="M69.7044 42.368H80.5446V46.4692H64.5991V21.6914H69.7044V42.368Z" fill="#2C113E"/>
<path d="M138.354 46.4692H133.248L123.31 30.1662V46.4692H118.205V21.6914H123.31L133.265 38.0284V21.6914H138.354V46.4692Z" fill="#2C113E"/>
<path d="M151.968 40.3258L157.584 21.6914H163.267L154.64 46.4692H149.313L140.719 21.6914H146.386L151.968 40.3258Z" fill="#2C113E"/>
<path d="M178.311 41.3639H169.36L167.658 46.4692H162.229L171.453 21.6914H176.184L185.459 46.4692H180.03L178.311 41.3639ZM170.738 37.2286H176.933L173.818 27.9539L170.738 37.2286Z" fill="#2C113E"/>
<path d="M197.522 37.3988H193.454V46.4692H188.349V21.6914H197.556C200.483 21.6914 202.74 22.3438 204.329 23.6484C205.917 24.9531 206.711 26.7967 206.711 29.1792C206.711 30.8696 206.342 32.2821 205.605 33.4166C204.879 34.5398 203.773 35.4361 202.287 36.1054L207.647 46.231V46.4692H202.167L197.522 37.3988ZM193.454 33.2635H197.573C198.855 33.2635 199.847 32.9401 200.551 32.2935C201.254 31.6354 201.606 30.7335 201.606 29.5876C201.606 28.4191 201.271 27.5001 200.602 26.8308C199.944 26.1614 198.928 25.8267 197.556 25.8267H193.454V33.2635Z" fill="#2C113E"/>
<path d="M225.069 35.731H215.267V42.368H226.771V46.4692H210.162V34.0803V21.6914H226.737V25.8267H215.267V31.7319H225.069V35.731Z" fill="#2C113E"/>
<path d="M249.915 46.4692H244.81L234.871 30.1662V46.4692H229.766V21.6914H234.871L244.827 38.0284V21.6914H249.915V46.4692Z" fill="#2C113E"/>
<g clip-path="url(#clip0)">
<path d="M248.395 52.5214C247.891 52.0054 247.216 51.7212 246.495 51.7212C245.785 51.7212 245.117 51.9977 244.615 52.4998L244.356 52.7591L244.097 52.4998C243.595 51.9977 242.927 51.7212 242.218 51.7212C241.508 51.7212 240.84 51.9977 240.338 52.4998C239.836 53.0017 239.56 53.6691 239.56 54.379C239.56 55.0889 239.836 55.7563 240.338 56.2582L243.66 59.5799C243.852 59.7718 244.104 59.8677 244.356 59.8677C244.608 59.8677 244.86 59.7718 245.052 59.58L248.352 56.2799C249.389 55.2433 249.408 53.5573 248.395 52.5214ZM248.004 55.932L244.704 59.232C244.512 59.4239 244.2 59.4239 244.008 59.232L240.686 55.9102C240.277 55.5013 240.052 54.9574 240.052 54.379C240.052 53.8005 240.277 53.2567 240.686 52.8477C241.095 52.4386 241.639 52.2133 242.218 52.2133C242.796 52.2133 243.34 52.4386 243.749 52.8477L244.008 53.1072L243.611 53.5049C243.515 53.601 243.515 53.7568 243.611 53.8528C243.659 53.9008 243.722 53.9248 243.785 53.9248C243.848 53.9248 243.911 53.9008 243.959 53.8527L244.963 52.8477C245.372 52.4386 245.916 52.2133 246.495 52.2133C247.082 52.2133 247.632 52.4449 248.043 52.8654C248.869 53.7095 248.851 55.0851 248.004 55.932Z" fill="#EE3E15"/>
<path d="M248.287 54.2671C248.26 53.8295 248.075 53.418 247.765 53.1084C247.546 52.8892 247.274 52.73 246.979 52.6477C246.848 52.6113 246.712 52.6879 246.676 52.8188C246.639 52.9497 246.716 53.0854 246.847 53.1218C247.061 53.1813 247.258 53.297 247.417 53.4563C247.642 53.681 247.776 53.9797 247.796 54.2974C247.804 54.4279 247.912 54.5283 248.041 54.5283C248.046 54.5283 248.052 54.5281 248.057 54.5278C248.192 54.5194 248.295 54.4027 248.287 54.2671Z" fill="#EE3E15"/>
</g>
<path d="M108.982 34.0294C111.723 31.2411 113.589 27.6889 114.345 23.822C115.101 19.955 114.712 15.9471 113.228 12.3048C111.744 8.66247 109.232 5.54941 106.008 3.3592C102.784 1.169 98.9941 0 95.1171 0C91.24 0 87.45 1.169 84.2263 3.3592C81.0025 5.54941 78.4898 8.66247 77.0057 12.3048C75.5217 15.9471 75.133 19.955 75.8888 23.822C76.6446 27.6889 78.511 31.2411 81.2519 34.0294L89.7081 42.6269C89.8523 42.7732 90.0235 42.8893 90.2118 42.9684C90.4002 43.0475 90.6019 43.0881 90.8057 43.0878C91.0095 43.0876 91.2112 43.0466 91.3994 42.9671C91.5875 42.8876 91.7584 42.7712 91.9024 42.6245C92.0463 42.4779 92.1604 42.3038 92.2382 42.1123C92.3159 41.9208 92.3559 41.7155 92.3557 41.5083C92.3554 41.3011 92.3151 41.096 92.2369 40.9047C92.1587 40.7133 92.0443 40.5395 91.9 40.3932L84.1683 32.5308L90.2097 26.3872L101.159 37.521L89.7081 49.1649C88.6384 50.2528 87.9099 51.6387 87.6148 53.1476C87.3197 54.6565 87.4712 56.2204 88.0502 57.6417C88.6291 59.063 89.6095 60.2778 90.8674 61.1325C92.1253 61.9872 93.6042 62.4434 95.1171 62.4434C96.6299 62.4434 98.1088 61.9872 99.3667 61.1325C100.625 60.2778 101.605 59.063 102.184 57.6417C102.763 56.2204 102.914 54.6565 102.619 53.1476C102.324 51.6387 101.596 50.2528 100.526 49.1649C100.384 49.0112 100.213 48.8881 100.023 48.8029C99.8331 48.7177 99.6284 48.6721 99.4209 48.6688C99.2134 48.6656 99.0074 48.7047 98.8151 48.7839C98.6228 48.8631 98.448 48.9808 98.3013 49.1299C98.1545 49.2791 98.0386 49.4567 97.9606 49.6522C97.8826 49.8477 97.8439 50.0572 97.847 50.2682C97.8501 50.4792 97.8948 50.6874 97.9784 50.8805C98.0621 51.0736 98.183 51.2476 98.3341 51.3923C98.9707 52.0394 99.4043 52.8639 99.58 53.7616C99.7558 54.6593 99.6658 55.5898 99.3214 56.4355C98.9771 57.2812 98.3938 58.004 97.6454 58.5126C96.897 59.0211 96.0172 59.2926 95.1171 59.2926C94.2169 59.2926 93.3371 59.0211 92.5887 58.5126C91.8403 58.004 91.257 57.2812 90.9127 56.4355C90.5683 55.5898 90.4783 54.6593 90.6541 53.7616C90.8298 52.8639 91.2634 52.0394 91.9 51.3923L108.982 34.0294ZM83.4454 8.06274C85.7193 5.75007 88.6081 4.1633 91.7568 3.49741C94.9055 2.83151 98.1768 3.11551 101.169 4.3145C104.161 5.51349 106.743 7.57525 108.599 10.2464C110.455 12.9176 111.502 16.0818 111.613 19.3502L108.023 15.7065C107.879 15.5599 107.708 15.4435 107.52 15.3641C107.332 15.2847 107.131 15.2438 106.927 15.2438C106.724 15.2438 106.522 15.2847 106.334 15.3641C106.146 15.4435 105.976 15.5599 105.832 15.7065L101.085 20.532L90.0244 9.28417C89.7327 8.99055 89.3388 8.82585 88.9284 8.82585C88.518 8.82585 88.1241 8.99055 87.8324 9.28417L78.669 18.6025C78.9721 14.6218 80.6664 10.8831 83.4454 8.06274ZM90.2097 22.5899C89.8003 22.5909 89.408 22.7573 89.1192 23.0525L82.0729 30.2162C80.4317 28.0633 79.3332 25.5349 78.873 22.8513L88.9354 12.6189L98.9058 22.7578L94.9519 26.769L91.3049 23.0604C91.0154 22.7625 90.6216 22.5933 90.2097 22.5899ZM97.1423 28.9869L106.927 19.0381L111.263 23.4422C110.601 26.609 109.047 29.5114 106.79 31.7957L103.349 35.2936L97.1423 28.9869Z" fill="#EE3E15"/>
<path d="M120.521 57.493L120.662 58.4848L120.869 57.5912L122.324 52.3431H123.142L124.562 57.5912L124.764 58.5003L124.921 57.4879L126.062 52.3431H127.037L125.254 59.864H124.37L122.855 54.3834L122.738 53.81L122.622 54.3834L121.051 59.864H120.167L118.389 52.3431H119.359L120.521 57.493Z" fill="#909BA5"/>
<path d="M129.159 59.864H128.189V52.3431H129.159V59.864Z" fill="#909BA5"/>
<path d="M134.018 52.3431H134.993V57.6687C134.993 58.3884 134.781 58.9514 134.356 59.3578C133.935 59.7641 133.373 59.9673 132.669 59.9673C131.939 59.9673 131.369 59.7762 130.962 59.3939C130.554 59.0117 130.351 58.4762 130.351 57.7875H131.321C131.321 58.2179 131.435 58.5537 131.664 58.7947C131.896 59.0358 132.232 59.1563 132.669 59.1563C133.07 59.1563 133.393 59.0272 133.639 58.7689C133.888 58.5106 134.015 58.149 134.018 57.6841V52.3431Z" fill="#909BA5"/>
<path d="M144.863 59.864H143.888V56.3876H140.181V59.864H139.211V52.3431H140.181V55.5766H143.888V52.3431H144.863V59.864Z" fill="#909BA5"/>
<path d="M150.743 56.3876H147.556V59.053H151.258V59.864H146.586V52.3431H151.208V53.1592H147.556V55.5766H150.743V56.3876Z" fill="#909BA5"/>
<path d="M152.465 59.864V52.3431H154.87C155.668 52.3431 156.267 52.5118 156.668 52.8493C157.072 53.1867 157.274 53.6861 157.274 54.3473C157.274 54.6985 157.177 55.0102 156.981 55.2822C156.786 55.5508 156.52 55.7592 156.183 55.9072C156.581 56.0209 156.894 56.2378 157.123 56.5581C157.355 56.8749 157.471 57.2537 157.471 57.6945C157.471 58.3694 157.258 58.8998 156.83 59.2854C156.402 59.6711 155.798 59.864 155.016 59.864H152.465ZM153.435 56.3463V59.053H155.037C155.488 59.053 155.843 58.9342 156.102 58.6966C156.365 58.4555 156.496 58.1249 156.496 57.7048C156.496 56.7991 156.015 56.3463 155.052 56.3463H153.435ZM153.435 55.5508H154.9C155.325 55.5508 155.663 55.4423 155.916 55.2254C156.171 55.0084 156.299 54.714 156.299 54.3421C156.299 53.9289 156.182 53.6293 155.946 53.4433C155.71 53.2539 155.351 53.1592 154.87 53.1592H153.435V55.5508Z" fill="#909BA5"/>
<path d="M158.911 59.864V52.3431H161.315C162.114 52.3431 162.713 52.5118 163.114 52.8493C163.518 53.1867 163.72 53.6861 163.72 54.3473C163.72 54.6985 163.622 55.0102 163.427 55.2822C163.232 55.5508 162.966 55.7592 162.629 55.9072C163.026 56.0209 163.339 56.2378 163.568 56.5581C163.801 56.8749 163.917 57.2537 163.917 57.6945C163.917 58.3694 163.703 58.8998 163.275 59.2854C162.848 59.6711 162.243 59.864 161.462 59.864H158.911ZM159.881 56.3463V59.053H161.482C161.933 59.053 162.289 58.9342 162.548 58.6966C162.811 58.4555 162.942 58.1249 162.942 57.7048C162.942 56.7991 162.46 56.3463 161.497 56.3463H159.881ZM159.881 55.5508H161.346C161.77 55.5508 162.108 55.4423 162.361 55.2254C162.617 55.0084 162.745 54.714 162.745 54.3421C162.745 53.9289 162.627 53.6293 162.391 53.4433C162.156 53.2539 161.797 53.1592 161.315 53.1592H159.881V55.5508Z" fill="#909BA5"/>
<path d="M169.514 56.3876H166.326V59.053H170.029V59.864H165.356V52.3431H169.978V53.1592H166.326V55.5766H169.514V56.3876Z" fill="#909BA5"/>
<path d="M176.889 59.864H175.914L172.211 54.0683V59.864H171.236V52.3431H172.211L175.924 58.1645V52.3431H176.889V59.864Z" fill="#909BA5"/>
<path d="M185.335 56.3876H182.147V59.053H185.85V59.864H181.177V52.3431H185.799V53.1592H182.147V55.5766H185.335V56.3876Z" fill="#909BA5"/>
<path d="M191.214 56.3876H188.027V59.053H191.73V59.864H187.057V52.3431H191.679V53.1592H188.027V55.5766H191.214V56.3876Z" fill="#909BA5"/>
<path d="M198.589 59.864H197.614L193.912 54.0683V59.864H192.937V52.3431H193.912L197.624 58.1645V52.3431H198.589V59.864Z" fill="#909BA5"/>
<path d="M208.308 58.8774C208.059 59.2424 207.71 59.5162 207.262 59.6987C206.818 59.8778 206.299 59.9673 205.707 59.9673C205.107 59.9673 204.575 59.8244 204.11 59.5386C203.646 59.2493 203.285 58.8395 203.029 58.3092C202.777 57.7788 202.647 57.1642 202.64 56.4651V55.8091C202.64 54.6761 202.898 53.798 203.413 53.1747C203.932 52.5514 204.659 52.2397 205.595 52.2397C206.363 52.2397 206.981 52.4412 207.449 52.8441C207.917 53.2436 208.204 53.8118 208.308 54.5487H207.338C207.156 53.5535 206.577 53.0559 205.6 53.0559C204.951 53.0559 204.457 53.2901 204.12 53.7584C203.787 54.2233 203.619 54.8982 203.615 55.7833V56.3979C203.615 57.2416 203.804 57.9132 204.181 58.4125C204.558 58.9084 205.068 59.1563 205.712 59.1563C206.075 59.1563 206.394 59.115 206.666 59.0323C206.939 58.9497 207.165 58.8102 207.343 58.6139V56.9248H205.641V56.119H208.308V58.8774Z" fill="#909BA5"/>
<path d="M212.627 56.8215H210.899V59.864H209.924V52.3431H212.359C213.188 52.3431 213.824 52.5359 214.269 52.9216C214.716 53.3073 214.94 53.8686 214.94 54.6055C214.94 55.0739 214.816 55.4819 214.567 55.8297C214.321 56.1776 213.977 56.4375 213.536 56.6097L215.264 59.802V59.864H214.223L212.627 56.8215ZM210.899 56.0105H212.389C212.871 56.0105 213.253 55.8831 213.536 55.6283C213.822 55.3735 213.965 55.0325 213.965 54.6055C213.965 54.1406 213.829 53.7842 213.556 53.5363C213.287 53.2883 212.896 53.1626 212.384 53.1592H210.899V56.0105Z" fill="#909BA5"/>
<path d="M221.962 56.3463C221.962 57.0832 221.841 57.7272 221.598 58.2782C221.356 58.8257 221.012 59.2441 220.568 59.5334C220.123 59.8227 219.604 59.9673 219.012 59.9673C218.433 59.9673 217.919 59.8227 217.471 59.5334C217.023 59.2407 216.675 58.8257 216.425 58.2885C216.18 57.7479 216.053 57.1228 216.047 56.4134V55.8711C216.047 55.1479 216.17 54.5091 216.415 53.9547C216.661 53.4003 217.008 52.9767 217.456 52.684C217.907 52.3878 218.422 52.2397 219.002 52.2397C219.591 52.2397 220.11 52.3861 220.557 52.6788C221.009 52.9681 221.356 53.3899 221.598 53.9444C221.841 54.4953 221.962 55.1376 221.962 55.8711V56.3463ZM220.997 55.8607C220.997 54.9688 220.822 54.2853 220.472 53.81C220.121 53.3314 219.631 53.092 219.002 53.092C218.389 53.092 217.906 53.3314 217.552 53.81C217.202 54.2853 217.022 54.9465 217.011 55.7936V56.3463C217.011 57.2106 217.188 57.8908 217.542 58.3867C217.899 58.8791 218.389 59.1253 219.012 59.1253C219.638 59.1253 220.123 58.8929 220.467 58.428C220.81 57.9596 220.987 57.2899 220.997 56.4186V55.8607Z" fill="#909BA5"/>
<path d="M229.074 56.3463C229.074 57.0832 228.953 57.7272 228.71 58.2782C228.468 58.8257 228.124 59.2441 227.68 59.5334C227.235 59.8227 226.717 59.9673 226.124 59.9673C225.545 59.9673 225.031 59.8227 224.583 59.5334C224.136 59.2407 223.787 58.8257 223.538 58.2885C223.292 57.7479 223.166 57.1228 223.159 56.4134V55.8711C223.159 55.1479 223.282 54.5091 223.528 53.9547C223.774 53.4003 224.12 52.9767 224.568 52.684C225.02 52.3878 225.535 52.2397 226.114 52.2397C226.703 52.2397 227.222 52.3861 227.67 52.6788C228.121 52.9681 228.468 53.3899 228.71 53.9444C228.953 54.4953 229.074 55.1376 229.074 55.8711V56.3463ZM228.109 55.8607C228.109 54.9688 227.934 54.2853 227.584 53.81C227.234 53.3314 226.744 53.092 226.114 53.092C225.501 53.092 225.018 53.3314 224.664 53.81C224.314 54.2853 224.134 54.9465 224.124 55.7936V56.3463C224.124 57.2106 224.301 57.8908 224.654 58.3867C225.011 58.8791 225.501 59.1253 226.124 59.1253C226.75 59.1253 227.235 58.8929 227.579 58.428C227.922 57.9596 228.099 57.2899 228.109 56.4186V55.8607Z" fill="#909BA5"/>
<path d="M235.469 53.1592H233.105V59.864H232.14V53.1592H229.781V52.3431H235.469V53.1592Z" fill="#909BA5"/>
<path d="M256.755 58.5468L258.857 52.3431H259.918L257.19 59.864H256.331L253.608 52.3431H254.664L256.755 58.5468Z" fill="#909BA5"/>
<path d="M266.494 56.3463C266.494 57.0832 266.373 57.7272 266.131 58.2782C265.888 58.8257 265.545 59.2441 265.1 59.5334C264.656 59.8227 264.137 59.9673 263.544 59.9673C262.965 59.9673 262.452 59.8227 262.004 59.5334C261.556 59.2407 261.207 58.8257 260.958 58.2885C260.712 57.7479 260.586 57.1228 260.579 56.4134V55.8711C260.579 55.1479 260.702 54.5091 260.948 53.9547C261.194 53.4003 261.541 52.9767 261.989 52.684C262.44 52.3878 262.955 52.2397 263.534 52.2397C264.124 52.2397 264.642 52.3861 265.09 52.6788C265.541 52.9681 265.888 53.3899 266.131 53.9444C266.373 54.4953 266.494 55.1376 266.494 55.8711V56.3463ZM265.53 55.8607C265.53 54.9688 265.354 54.2853 265.004 53.81C264.654 53.3314 264.164 53.092 263.534 53.092C262.921 53.092 262.438 53.3314 262.085 53.81C261.734 54.2853 261.554 54.9465 261.544 55.7936V56.3463C261.544 57.2106 261.721 57.8908 262.074 58.3867C262.431 58.8791 262.921 59.1253 263.544 59.1253C264.171 59.1253 264.656 58.8929 264.999 58.428C265.343 57.9596 265.519 57.2899 265.53 56.4186V55.8607Z" fill="#909BA5"/>
<path d="M273.607 56.3463C273.607 57.0832 273.485 57.7272 273.243 58.2782C273 58.8257 272.657 59.2441 272.212 59.5334C271.768 59.8227 271.249 59.9673 270.657 59.9673C270.077 59.9673 269.564 59.8227 269.116 59.5334C268.668 59.2407 268.32 58.8257 268.07 58.2885C267.825 57.7479 267.698 57.1228 267.692 56.4134V55.8711C267.692 55.1479 267.814 54.5091 268.06 53.9547C268.306 53.4003 268.653 52.9767 269.101 52.684C269.552 52.3878 270.067 52.2397 270.647 52.2397C271.236 52.2397 271.754 52.3861 272.202 52.6788C272.654 52.9681 273 53.3899 273.243 53.9444C273.485 54.4953 273.607 55.1376 273.607 55.8711V56.3463ZM272.642 55.8607C272.642 54.9688 272.467 54.2853 272.116 53.81C271.766 53.3314 271.276 53.092 270.647 53.092C270.034 53.092 269.55 53.3314 269.197 53.81C268.847 54.2853 268.666 54.9465 268.656 55.7936V56.3463C268.656 57.2106 268.833 57.8908 269.187 58.3867C269.544 58.8791 270.034 59.1253 270.657 59.1253C271.283 59.1253 271.768 58.8929 272.111 58.428C272.455 57.9596 272.632 57.2899 272.642 56.4186V55.8607Z" fill="#909BA5"/>
<path d="M277.759 56.8215H276.031V59.864H275.056V52.3431H277.491C278.32 52.3431 278.956 52.5359 279.401 52.9216C279.848 53.3073 280.072 53.8686 280.072 54.6055C280.072 55.0739 279.948 55.4819 279.699 55.8297C279.453 56.1776 279.109 56.4375 278.668 56.6097L280.396 59.802V59.864H279.355L277.759 56.8215ZM276.031 56.0105H277.521C278.003 56.0105 278.385 55.8831 278.668 55.6283C278.954 55.3735 279.097 55.0325 279.097 54.6055C279.097 54.1406 278.961 53.7842 278.688 53.5363C278.419 53.2883 278.028 53.1626 277.516 53.1592H276.031V56.0105Z" fill="#909BA5"/>
<path d="M287.084 52.3431H288.059V57.6687C288.059 58.3884 287.846 58.9514 287.422 59.3578C287.001 59.7641 286.439 59.9673 285.735 59.9673C285.004 59.9673 284.435 59.7762 284.028 59.3939C283.62 59.0117 283.416 58.4762 283.416 57.7875H284.386C284.386 58.2179 284.501 58.5537 284.73 58.7947C284.962 59.0358 285.297 59.1563 285.735 59.1563C286.136 59.1563 286.459 59.0272 286.705 58.7689C286.954 58.5106 287.08 58.149 287.084 57.6841V52.3431Z" fill="#909BA5"/>
<path d="M295.368 56.3463C295.368 57.0832 295.247 57.7272 295.004 58.2782C294.762 58.8257 294.418 59.2441 293.974 59.5334C293.529 59.8227 293.01 59.9673 292.418 59.9673C291.839 59.9673 291.325 59.8227 290.877 59.5334C290.429 59.2407 290.081 58.8257 289.832 58.2885C289.586 57.7479 289.459 57.1228 289.453 56.4134V55.8711C289.453 55.1479 289.576 54.5091 289.821 53.9547C290.067 53.4003 290.414 52.9767 290.862 52.684C291.313 52.3878 291.828 52.2397 292.408 52.2397C292.997 52.2397 293.516 52.3861 293.964 52.6788C294.415 52.9681 294.762 53.3899 295.004 53.9444C295.247 54.4953 295.368 55.1376 295.368 55.8711V56.3463ZM294.403 55.8607C294.403 54.9688 294.228 54.2853 293.878 53.81C293.527 53.3314 293.037 53.092 292.408 53.092C291.795 53.092 291.312 53.3314 290.958 53.81C290.608 54.2853 290.428 54.9465 290.417 55.7936V56.3463C290.417 57.2106 290.594 57.8908 290.948 58.3867C291.305 58.8791 291.795 59.1253 292.418 59.1253C293.044 59.1253 293.529 58.8929 293.873 58.428C294.216 57.9596 294.393 57.2899 294.403 56.4186V55.8607Z" fill="#909BA5"/>
<path d="M302 52.3431V57.4569C301.997 58.1663 301.778 58.7465 301.344 59.1976C300.912 59.6487 300.327 59.9019 299.586 59.957L299.328 59.9673C298.523 59.9673 297.882 59.7452 297.403 59.3009C296.925 58.8567 296.683 58.2455 296.676 57.4672V52.3431H297.636V57.4362C297.636 57.9803 297.782 58.4039 298.075 58.7069C298.368 59.0065 298.786 59.1563 299.328 59.1563C299.877 59.1563 300.296 59.0065 300.586 58.7069C300.879 58.4073 301.025 57.9855 301.025 57.4414V52.3431H302Z" fill="#909BA5"/>
<path d="M254.088 43.8194C254.088 43.0537 254.343 42.4322 254.852 41.9551C255.373 41.4779 256.021 41.2393 256.796 41.2393C257.582 41.2393 258.23 41.4779 258.74 41.9551C259.26 42.4322 259.52 43.0537 259.52 43.8194C259.52 44.574 259.266 45.1899 258.756 45.6671C258.247 46.1332 257.593 46.3662 256.796 46.3662C256.009 46.3662 255.362 46.1332 254.852 45.6671C254.343 45.1899 254.088 44.574 254.088 43.8194Z" fill="#2C113E"/>
<path d="M264.056 46.1831V21.9468H272.528C275.463 21.9468 277.689 22.5127 279.207 23.6447C280.724 24.7655 281.483 26.4134 281.483 28.5885C281.483 29.7759 281.178 30.8246 280.569 31.7345C279.96 32.6334 279.113 33.2937 278.027 33.7154C279.268 34.0261 280.242 34.6531 280.951 35.5964C281.671 36.5396 282.031 37.6937 282.031 39.0587C282.031 41.3891 281.289 43.1536 279.805 44.3521C278.321 45.5506 276.205 46.1609 273.459 46.1831H264.056ZM269.04 35.6297V42.1715H273.309C274.483 42.1715 275.397 41.894 276.05 41.3392C276.715 40.7732 277.047 39.9964 277.047 39.0088C277.047 36.7893 275.901 35.6629 273.608 35.6297H269.04ZM269.04 32.1007H272.728C275.242 32.0563 276.499 31.052 276.499 29.0878C276.499 27.9892 276.178 27.2013 275.535 26.7241C274.904 26.2359 273.902 25.9917 272.528 25.9917H269.04V32.1007Z" fill="#2C113E"/>
<path d="M300.339 35.6796H290.769V42.1715H302V46.1831H285.786V21.9468H301.967V25.9917H290.769V31.7678H300.339V35.6796Z" fill="#2C113E"/>
<defs>
<clipPath id="clip0">
<rect width="9.5824" height="9.58252" fill="white" transform="translate(239.56 51.0029)"/>
</clipPath>
</defs>
</svg>
