<svg width="327" height="68" viewBox="0 0 327 68" fill="none" xmlns="http://www.w3.org/2000/svg">
<path d="M0 50.3164V23.4875H9.39747C12.6528 23.4875 15.1219 24.114 16.8049 25.367C18.4878 26.6077 19.3293 28.4319 19.3293 30.8397C19.3293 32.1541 18.9915 33.3149 18.3159 34.3222C17.6402 35.3173 16.7005 36.0482 15.4966 36.515C16.8725 36.8589 17.9535 37.553 18.7397 38.5972C19.5381 39.6413 19.9374 40.9189 19.9374 42.4299C19.9374 45.0096 19.1143 46.9628 17.4682 48.2895C15.8221 49.6162 13.4759 50.2918 10.4294 50.3164H0ZM5.52792 38.634V45.8756H10.2635C11.5656 45.8756 12.5791 45.5685 13.3039 44.9543C14.0409 44.3278 14.4095 43.4679 14.4095 42.3746C14.4095 39.9177 13.138 38.6709 10.5952 38.634H5.52792ZM5.52792 34.7276H9.61859C12.4071 34.6785 13.8014 33.5668 13.8014 31.3924C13.8014 30.1763 13.4451 29.3041 12.7327 28.7759C12.0324 28.2354 10.9207 27.9651 9.39747 27.9651H5.52792V34.7276Z" fill="#2C113E"/>
<path d="M39.2483 44.7884H29.556L27.7133 50.3164H21.8353L31.8224 23.4875H36.945L46.9874 50.3164H41.1093L39.2483 44.7884ZM31.0485 40.3108H37.7557L34.3837 30.2684L31.0485 40.3108Z" fill="#2C113E"/>
<path d="M55.0213 45.8756H66.7589V50.3164H49.4933V23.4875H55.0213V45.8756Z" fill="#2C113E"/>
<path d="M75.4746 45.8756H87.2122V50.3164H69.9467V23.4875H75.4746V45.8756Z" fill="#2C113E"/>
<path d="M149.807 50.3164H144.279L133.518 32.6639V50.3164H127.99V23.4875H133.518L144.297 41.1769V23.4875H149.807V50.3164Z" fill="#2C113E"/>
<path d="M164.548 43.6644L170.629 23.4875H176.783L167.441 50.3164H161.673L152.368 23.4875H158.504L164.548 43.6644Z" fill="#2C113E"/>
<path d="M193.072 44.7884H183.38L181.537 50.3164H175.659L185.646 23.4875H190.769L200.811 50.3164H194.933L193.072 44.7884ZM184.872 40.3108H191.579L188.207 30.2684L184.872 40.3108Z" fill="#2C113E"/>
<path d="M213.873 40.4951H209.469V50.3164H203.941V23.4875H213.91C217.079 23.4875 219.524 24.1939 221.243 25.6066C222.963 27.0192 223.823 29.0154 223.823 31.5951C223.823 33.4255 223.424 34.9549 222.625 36.1833C221.839 37.3995 220.641 38.3699 219.032 39.0947L224.837 50.0584V50.3164H218.903L213.873 40.4951ZM209.469 36.0175H213.928C215.316 36.0175 216.391 35.6674 217.153 34.9672C217.914 34.2547 218.295 33.2781 218.295 32.0374C218.295 30.7721 217.933 29.7771 217.208 29.0523C216.496 28.3275 215.396 27.9651 213.91 27.9651H209.469V36.0175Z" fill="#2C113E"/>
<path d="M243.701 38.6893H233.087V45.8756H245.543V50.3164H227.559V36.9019V23.4875H245.507V27.9651H233.087V34.3591H243.701V38.6893Z" fill="#2C113E"/>
<path d="M270.603 50.3164H265.075L254.314 32.6639V50.3164H248.787V23.4875H254.314L265.094 41.1769V23.4875H270.603V50.3164Z" fill="#2C113E"/>
<g clip-path="url(#clip0)">
<path d="M268.958 56.8691C268.411 56.3103 267.681 56.0026 266.9 56.0026C266.131 56.0026 265.409 56.302 264.865 56.8456L264.584 57.1264L264.303 56.8456C263.76 56.3019 263.037 56.0026 262.269 56.0026C261.5 56.0026 260.778 56.3019 260.234 56.8456C259.69 57.389 259.391 58.1117 259.391 58.8803C259.391 59.649 259.69 60.3716 260.234 60.9151L263.831 64.5118C264.038 64.7195 264.311 64.8234 264.584 64.8234C264.857 64.8234 265.13 64.7195 265.338 64.5118L268.911 60.9386C270.033 59.8162 270.054 57.9906 268.958 56.8691ZM268.534 60.5618L264.961 64.1351C264.753 64.3428 264.415 64.3428 264.207 64.135L260.611 60.5383C260.168 60.0955 259.924 59.5067 259.924 58.8803C259.924 58.254 260.168 57.6652 260.611 57.2223C261.054 56.7793 261.643 56.5354 262.269 56.5354C262.895 56.5354 263.484 56.7793 263.927 57.2223L264.208 57.5033L263.777 57.9339C263.673 58.038 263.674 58.2066 263.778 58.3106C263.83 58.3626 263.898 58.3886 263.966 58.3886C264.034 58.3886 264.102 58.3625 264.154 58.3105L265.242 57.2223C265.685 56.7793 266.274 56.5353 266.9 56.5353C267.536 56.5353 268.131 56.7861 268.577 57.2415C269.47 58.1554 269.451 59.6449 268.534 60.5618Z" fill="#EE3E15"/>
<path d="M268.841 58.7594C268.811 58.2856 268.611 57.8401 268.275 57.5048C268.038 57.2675 267.744 57.095 267.424 57.006C267.282 56.9666 267.135 57.0495 267.096 57.1913C267.056 57.333 267.139 57.4799 267.281 57.5193C267.513 57.5837 267.726 57.709 267.899 57.8815C268.142 58.1248 268.288 58.4482 268.309 58.7922C268.318 58.9335 268.435 59.0422 268.575 59.0422C268.58 59.0422 268.586 59.042 268.591 59.0417C268.738 59.0327 268.85 58.9063 268.841 58.7594Z" fill="#EE3E15"/>
</g>
<path d="M118.004 36.8465C120.972 33.8273 122.993 29.9811 123.811 25.794C124.63 21.607 124.209 17.2672 122.602 13.3234C120.995 9.37958 118.274 6.00881 114.784 3.63729C111.293 1.26578 107.189 0 102.991 0C98.7934 0 94.6897 1.26578 91.1991 3.63729C87.7084 6.00881 84.9877 9.37958 83.3808 13.3234C81.7739 17.2672 81.3531 21.607 82.1714 25.794C82.9898 29.9811 85.0107 33.8273 87.9785 36.8465L97.1347 46.1557C97.2908 46.3142 97.4762 46.4398 97.6801 46.5255C97.884 46.6111 98.1025 46.655 98.3231 46.6548C98.5438 46.6546 98.7622 46.6101 98.9659 46.5241C99.1697 46.438 99.3547 46.3119 99.5106 46.1531C99.6664 45.9943 99.79 45.8059 99.8742 45.5985C99.9584 45.3911 100.002 45.1689 100.001 44.9446C100.001 44.7202 99.9575 44.4981 99.8728 44.2909C99.7882 44.0837 99.6642 43.8955 99.5081 43.7371L91.1363 35.2238L97.6778 28.5717L109.533 40.6271L97.1347 53.235C95.9764 54.4129 95.1876 55.9136 94.8681 57.5474C94.5486 59.1811 94.7126 60.8745 95.3395 62.4135C95.9664 63.9525 97.028 65.2678 98.39 66.1933C99.752 67.1187 101.353 67.6126 102.991 67.6126C104.629 67.6126 106.231 67.1187 107.593 66.1933C108.955 65.2678 110.016 63.9525 110.643 62.4135C111.27 60.8745 111.434 59.1811 111.115 57.5474C110.795 55.9136 110.006 54.4129 108.848 53.235C108.694 53.0685 108.509 52.9352 108.303 52.843C108.098 52.7507 107.876 52.7013 107.652 52.6978C107.427 52.6943 107.204 52.7366 106.996 52.8224C106.787 52.9082 106.598 53.0356 106.439 53.1971C106.28 53.3586 106.155 53.5509 106.07 53.7626C105.986 53.9743 105.944 54.2011 105.947 54.4296C105.951 54.658 105.999 54.8834 106.09 55.0925C106.18 55.3016 106.311 55.4901 106.475 55.6467C107.164 56.3474 107.634 57.2402 107.824 58.2122C108.014 59.1842 107.917 60.1918 107.544 61.1074C107.171 62.0231 106.539 62.8058 105.729 63.3565C104.919 63.9071 103.966 64.201 102.991 64.201C102.017 64.201 101.064 63.9071 100.254 63.3565C99.4434 62.8058 98.8118 62.0231 98.439 61.1074C98.0661 60.1918 97.9687 59.1842 98.159 58.2122C98.3492 57.2402 98.8187 56.3474 99.5081 55.6467L118.004 36.8465ZM90.3536 8.73021C92.8157 6.22608 95.9436 4.50795 99.353 3.78693C102.762 3.06592 106.304 3.37342 109.544 4.67167C112.784 5.96992 115.58 8.20235 117.589 11.0946C119.599 13.9869 120.733 17.4131 120.853 20.9521L116.965 17.0068C116.81 16.848 116.625 16.722 116.421 16.636C116.218 16.55 116 16.5057 115.779 16.5057C115.559 16.5057 115.341 16.55 115.137 16.636C114.934 16.722 114.749 16.848 114.593 17.0068L109.454 22.2317L97.4771 10.0527C97.1613 9.73482 96.7348 9.55648 96.2904 9.55648C95.846 9.55648 95.4195 9.73482 95.1037 10.0527L85.1817 20.1424C85.5099 15.8323 87.3445 11.784 90.3536 8.73021ZM97.6778 24.46C97.2345 24.4611 96.8098 24.6413 96.497 24.9608L88.8675 32.7177C87.0904 30.3865 85.9009 27.6487 85.4027 24.743L96.298 13.6636L107.094 24.6418L102.813 28.9851L98.8637 24.9694C98.5502 24.6469 98.1238 24.4637 97.6778 24.46ZM105.184 31.3865L115.779 20.6142L120.474 25.3828C119.757 28.8118 118.074 31.9545 115.631 34.4279L111.905 38.2154L105.184 31.3865Z" fill="#EE3E15"/>
<path d="M130.498 62.2523L130.651 63.3262L130.875 62.3586L132.45 56.6759H133.336L134.873 62.3586L135.092 63.343L135.262 62.2467L136.498 56.6759H137.553L135.622 64.8196H134.665L133.024 58.8852L132.899 58.2643L132.773 58.8852L131.072 64.8196H130.115L128.189 56.6759H129.24L130.498 62.2523Z" fill="#909BA5"/>
<path d="M139.85 64.8196H138.8V56.6759H139.85V64.8196Z" fill="#909BA5"/>
<path d="M145.112 56.6759H146.168V62.4425C146.168 63.2218 145.938 63.8314 145.479 64.2714C145.023 64.7114 144.414 64.9314 143.652 64.9314C142.86 64.9314 142.244 64.7245 141.803 64.3106C141.362 63.8967 141.141 63.3169 141.141 62.5711H142.191C142.191 63.0372 142.315 63.4008 142.563 63.6618C142.815 63.9228 143.178 64.0533 143.652 64.0533C144.086 64.0533 144.436 63.9135 144.702 63.6338C144.972 63.3542 145.108 62.9626 145.112 62.4592V56.6759Z" fill="#909BA5"/>
<path d="M156.855 64.8196H155.799V61.0553H151.785V64.8196H150.735V56.6759H151.785V60.1772H155.799V56.6759H156.855V64.8196Z" fill="#909BA5"/>
<path d="M163.222 61.0553H159.77V63.9414H163.779V64.8196H158.72V56.6759H163.725V57.5596H159.77V60.1772H163.222V61.0553Z" fill="#909BA5"/>
<path d="M165.087 64.8196V56.6759H167.69C168.554 56.6759 169.203 56.8586 169.637 57.224C170.075 57.5894 170.294 58.1301 170.294 58.846C170.294 59.2264 170.188 59.5638 169.976 59.8584C169.765 60.1492 169.477 60.3748 169.112 60.5352C169.542 60.6582 169.882 60.8931 170.13 61.2399C170.381 61.583 170.507 61.9931 170.507 62.4704C170.507 63.2013 170.275 63.7755 169.812 64.1931C169.349 64.6108 168.695 64.8196 167.849 64.8196H165.087ZM166.137 61.0106V63.9414H167.871C168.359 63.9414 168.744 63.8128 169.025 63.5555C169.309 63.2945 169.451 62.9365 169.451 62.4816C169.451 61.5009 168.93 61.0106 167.887 61.0106H166.137ZM166.137 60.1492H167.723C168.182 60.1492 168.549 60.0318 168.822 59.7969C169.099 59.562 169.238 59.2431 169.238 58.8404C169.238 58.393 169.11 58.0686 168.855 57.8672C168.6 57.6621 168.212 57.5596 167.69 57.5596H166.137V60.1492Z" fill="#909BA5"/>
<path d="M172.066 64.8196V56.6759H174.669C175.533 56.6759 176.182 56.8586 176.616 57.224C177.054 57.5894 177.273 58.1301 177.273 58.846C177.273 59.2264 177.167 59.5638 176.955 59.8584C176.744 60.1492 176.456 60.3748 176.091 60.5352C176.522 60.6582 176.861 60.8931 177.109 61.2399C177.36 61.583 177.486 61.9931 177.486 62.4704C177.486 63.2013 177.254 63.7755 176.791 64.1931C176.328 64.6108 175.674 64.8196 174.828 64.8196H172.066ZM173.116 61.0106V63.9414H174.85C175.338 63.9414 175.723 63.8128 176.004 63.5555C176.288 63.2945 176.43 62.9365 176.43 62.4816C176.43 61.5009 175.909 61.0106 174.866 61.0106H173.116ZM173.116 60.1492H174.702C175.161 60.1492 175.528 60.0318 175.801 59.7969C176.079 59.562 176.217 59.2431 176.217 58.8404C176.217 58.393 176.089 58.0686 175.834 57.8672C175.579 57.6621 175.191 57.5596 174.669 57.5596H173.116V60.1492Z" fill="#909BA5"/>
<path d="M183.546 61.0553H180.095V63.9414H184.104V64.8196H179.045V56.6759H184.049V57.5596H180.095V60.1772H183.546V61.0553Z" fill="#909BA5"/>
<path d="M191.532 64.8196H190.476L186.467 58.544V64.8196H185.411V56.6759H186.467L190.487 62.9794V56.6759H191.532V64.8196Z" fill="#909BA5"/>
<path d="M200.677 61.0553H197.225V63.9414H201.235V64.8196H196.175V56.6759H201.18V57.5596H197.225V60.1772H200.677V61.0553Z" fill="#909BA5"/>
<path d="M207.043 61.0553H203.592V63.9414H207.601V64.8196H202.542V56.6759H207.546V57.5596H203.592V60.1772H207.043V61.0553Z" fill="#909BA5"/>
<path d="M215.029 64.8196H213.973L209.964 58.544V64.8196H208.908V56.6759H209.964L213.984 62.9794V56.6759H215.029V64.8196Z" fill="#909BA5"/>
<path d="M225.552 63.7513C225.282 64.1465 224.905 64.443 224.42 64.6406C223.938 64.8345 223.377 64.9314 222.735 64.9314C222.086 64.9314 221.51 64.7767 221.007 64.4672C220.504 64.154 220.113 63.7103 219.836 63.136C219.563 62.5618 219.422 61.8962 219.415 61.1392V60.4289C219.415 59.2021 219.694 58.2513 220.252 57.5764C220.813 56.9015 221.601 56.564 222.615 56.564C223.446 56.564 224.115 56.7821 224.622 57.2184C225.129 57.6509 225.439 58.2662 225.552 59.0642H224.502C224.305 57.9865 223.678 57.4477 222.62 57.4477C221.917 57.4477 221.382 57.7013 221.018 58.2084C220.657 58.7118 220.474 59.4426 220.471 60.4009V61.0665C220.471 61.9801 220.675 62.7072 221.083 63.2479C221.492 63.7848 222.044 64.0533 222.741 64.0533C223.134 64.0533 223.479 64.0086 223.774 63.9191C224.07 63.8296 224.314 63.6786 224.507 63.466V61.637H222.664V60.7645H225.552V63.7513Z" fill="#909BA5"/>
<path d="M230.228 61.5252H228.358V64.8196H227.302V56.6759H229.938C230.835 56.6759 231.525 56.8847 232.006 57.3023C232.491 57.7199 232.733 58.3277 232.733 59.1257C232.733 59.6328 232.598 60.0747 232.329 60.4513C232.062 60.8279 231.69 61.1094 231.213 61.2959L233.083 64.7525V64.8196H231.957L230.228 61.5252ZM228.358 60.647H229.971C230.493 60.647 230.907 60.5091 231.213 60.2331C231.523 59.9572 231.678 59.5881 231.678 59.1257C231.678 58.6223 231.53 58.2364 231.235 57.9679C230.943 57.6994 230.52 57.5633 229.966 57.5596H228.358V60.647Z" fill="#909BA5"/>
<path d="M240.336 61.0106C240.336 61.8086 240.205 62.5059 239.942 63.1025C239.68 63.6953 239.308 64.1484 238.826 64.4616C238.345 64.7748 237.784 64.9314 237.142 64.9314C236.515 64.9314 235.959 64.7748 235.474 64.4616C234.989 64.1447 234.611 63.6953 234.341 63.1137C234.075 62.5282 233.938 61.8514 233.931 61.0833V60.496C233.931 59.713 234.064 59.0213 234.33 58.4209C234.597 57.8206 234.972 57.362 235.457 57.045C235.946 56.7243 236.504 56.564 237.131 56.564C237.769 56.564 238.33 56.7225 238.815 57.0394C239.304 57.3526 239.68 57.8094 239.942 58.4098C240.205 59.0064 240.336 59.7018 240.336 60.496V61.0106ZM239.291 60.4848C239.291 59.5191 239.102 58.7789 238.722 58.2643C238.343 57.746 237.813 57.4869 237.131 57.4869C236.467 57.4869 235.944 57.746 235.561 58.2643C235.182 58.7789 234.987 59.4948 234.976 60.4121V61.0106C234.976 61.9465 235.167 62.683 235.55 63.2199C235.937 63.7531 236.467 64.0198 237.142 64.0198C237.82 64.0198 238.345 63.7681 238.717 63.2647C239.089 62.7575 239.28 62.0323 239.291 61.0889V60.4848Z" fill="#909BA5"/>
<path d="M248.037 61.0106C248.037 61.8086 247.906 62.5059 247.643 63.1025C247.381 63.6953 247.009 64.1484 246.527 64.4616C246.046 64.7748 245.485 64.9314 244.843 64.9314C244.216 64.9314 243.66 64.7748 243.175 64.4616C242.69 64.1447 242.312 63.6953 242.042 63.1137C241.776 62.5282 241.64 61.8514 241.632 61.0833V60.496C241.632 59.713 241.765 59.0213 242.031 58.4209C242.298 57.8206 242.673 57.362 243.158 57.045C243.647 56.7243 244.205 56.564 244.832 56.564C245.47 56.564 246.032 56.7225 246.516 57.0394C247.005 57.3526 247.381 57.8094 247.643 58.4098C247.906 59.0064 248.037 59.7018 248.037 60.496V61.0106ZM246.992 60.4848C246.992 59.5191 246.803 58.7789 246.423 58.2643C246.044 57.746 245.514 57.4869 244.832 57.4869C244.168 57.4869 243.645 57.746 243.262 58.2643C242.883 58.7789 242.688 59.4948 242.677 60.4121V61.0106C242.677 61.9465 242.868 62.683 243.251 63.2199C243.638 63.7531 244.168 64.0198 244.843 64.0198C245.521 64.0198 246.046 63.7681 246.418 63.2647C246.79 62.7575 246.981 62.0323 246.992 61.0889V60.4848Z" fill="#909BA5"/>
<path d="M254.961 57.5596H252.402V64.8196H251.357V57.5596H248.803V56.6759H254.961V57.5596Z" fill="#909BA5"/>
<path d="M278.01 63.3933L280.285 56.6759H281.434L278.48 64.8196H277.55L274.602 56.6759H275.745L278.01 63.3933Z" fill="#909BA5"/>
<path d="M288.555 61.0106C288.555 61.8086 288.424 62.5059 288.161 63.1025C287.899 63.6953 287.527 64.1484 287.045 64.4616C286.564 64.7748 286.003 64.9314 285.361 64.9314C284.734 64.9314 284.178 64.7748 283.693 64.4616C283.208 64.1447 282.83 63.6953 282.56 63.1137C282.294 62.5282 282.158 61.8514 282.15 61.0833V60.496C282.15 59.713 282.283 59.0213 282.549 58.4209C282.816 57.8206 283.191 57.362 283.676 57.045C284.165 56.7243 284.723 56.564 285.35 56.564C285.988 56.564 286.55 56.7225 287.034 57.0394C287.523 57.3526 287.899 57.8094 288.161 58.4098C288.424 59.0064 288.555 59.7018 288.555 60.496V61.0106ZM287.51 60.4848C287.51 59.5191 287.321 58.7789 286.941 58.2643C286.562 57.746 286.032 57.4869 285.35 57.4869C284.686 57.4869 284.163 57.746 283.78 58.2643C283.401 58.7789 283.206 59.4948 283.195 60.4121V61.0106C283.195 61.9465 283.386 62.683 283.769 63.2199C284.156 63.7531 284.686 64.0198 285.361 64.0198C286.039 64.0198 286.564 63.7681 286.936 63.2647C287.308 62.7575 287.499 62.0323 287.51 61.0889V60.4848Z" fill="#909BA5"/>
<path d="M296.256 61.0106C296.256 61.8086 296.125 62.5059 295.862 63.1025C295.6 63.6953 295.228 64.1484 294.746 64.4616C294.265 64.7748 293.704 64.9314 293.062 64.9314C292.435 64.9314 291.879 64.7748 291.394 64.4616C290.909 64.1447 290.531 63.6953 290.261 63.1137C289.995 62.5282 289.859 61.8514 289.851 61.0833V60.496C289.851 59.713 289.984 59.0213 290.251 58.4209C290.517 57.8206 290.892 57.362 291.377 57.045C291.866 56.7243 292.424 56.564 293.051 56.564C293.689 56.564 294.251 56.7225 294.736 57.0394C295.224 57.3526 295.6 57.8094 295.862 58.4098C296.125 59.0064 296.256 59.7018 296.256 60.496V61.0106ZM295.211 60.4848C295.211 59.5191 295.022 58.7789 294.643 58.2643C294.263 57.746 293.733 57.4869 293.051 57.4869C292.387 57.4869 291.864 57.746 291.481 58.2643C291.102 58.7789 290.907 59.4948 290.896 60.4121V61.0106C290.896 61.9465 291.087 62.683 291.47 63.2199C291.857 63.7531 292.387 64.0198 293.062 64.0198C293.74 64.0198 294.265 63.7681 294.637 63.2647C295.009 62.7575 295.2 62.0323 295.211 61.0889V60.4848Z" fill="#909BA5"/>
<path d="M300.752 61.5252H298.881V64.8196H297.826V56.6759H300.462C301.359 56.6759 302.048 56.8847 302.53 57.3023C303.015 57.7199 303.257 58.3277 303.257 59.1257C303.257 59.6328 303.122 60.0747 302.852 60.4513C302.586 60.8279 302.214 61.1094 301.736 61.2959L303.607 64.7525V64.8196H302.48L300.752 61.5252ZM298.881 60.647H300.495C301.016 60.647 301.43 60.5091 301.736 60.2331C302.046 59.9572 302.201 59.5881 302.201 59.1257C302.201 58.6223 302.054 58.2364 301.758 57.9679C301.467 57.6994 301.044 57.5633 300.489 57.5596H298.881V60.647Z" fill="#909BA5"/>
<path d="M310.849 56.6759H311.904V62.4425C311.904 63.2218 311.675 63.8314 311.215 64.2714C310.759 64.7114 310.15 64.9314 309.388 64.9314C308.597 64.9314 307.981 64.7245 307.54 64.3106C307.098 63.8967 306.878 63.3169 306.878 62.5711H307.928C307.928 63.0372 308.052 63.4008 308.3 63.6618C308.551 63.9228 308.914 64.0533 309.388 64.0533C309.822 64.0533 310.172 63.9135 310.438 63.6338C310.708 63.3542 310.845 62.9626 310.849 62.4592V56.6759Z" fill="#909BA5"/>
<path d="M319.819 61.0106C319.819 61.8086 319.687 62.5059 319.425 63.1025C319.162 63.6953 318.79 64.1484 318.309 64.4616C317.828 64.7748 317.266 64.9314 316.624 64.9314C315.997 64.9314 315.441 64.7748 314.956 64.4616C314.471 64.1447 314.094 63.6953 313.824 63.1137C313.558 62.5282 313.421 61.8514 313.414 61.0833V60.496C313.414 59.713 313.547 59.0213 313.813 58.4209C314.079 57.8206 314.455 57.362 314.94 57.045C315.428 56.7243 315.986 56.564 316.614 56.564C317.252 56.564 317.813 56.7225 318.298 57.0394C318.787 57.3526 319.162 57.8094 319.425 58.4098C319.687 59.0064 319.819 59.7018 319.819 60.496V61.0106ZM318.774 60.4848C318.774 59.5191 318.584 58.7789 318.205 58.2643C317.826 57.746 317.295 57.4869 316.614 57.4869C315.95 57.4869 315.427 57.746 315.044 58.2643C314.665 58.7789 314.469 59.4948 314.459 60.4121V61.0106C314.459 61.9465 314.65 62.683 315.033 63.2199C315.419 63.7531 315.95 64.0198 316.624 64.0198C317.303 64.0198 317.828 63.7681 318.2 63.2647C318.572 62.7575 318.763 62.0323 318.774 61.0889V60.4848Z" fill="#909BA5"/>
<path d="M327 56.6759V62.2131C326.996 62.9813 326.759 63.6096 326.289 64.0981C325.822 64.5865 325.188 64.8606 324.386 64.9203L324.107 64.9314C323.235 64.9314 322.541 64.6909 322.023 64.2099C321.505 63.7289 321.243 63.067 321.235 62.2243V56.6759H322.274V62.1908C322.274 62.7799 322.433 63.2386 322.75 63.5667C323.068 63.8911 323.52 64.0533 324.107 64.0533C324.701 64.0533 325.155 63.8911 325.469 63.5667C325.786 63.2423 325.944 62.7855 325.944 62.1964V56.6759H327Z" fill="#909BA5"/>
<path d="M275.122 47.4471C275.122 46.618 275.397 45.9451 275.949 45.4284C276.513 44.9117 277.214 44.6534 278.054 44.6534C278.905 44.6534 279.607 44.9117 280.158 45.4284C280.722 45.9451 281.004 46.618 281.004 47.4471C281.004 48.2642 280.728 48.9311 280.176 49.4478C279.625 49.9524 278.917 50.2048 278.054 50.2048C277.202 50.2048 276.501 49.9524 275.949 49.4478C275.397 48.9311 275.122 48.2642 275.122 47.4471Z" fill="#2C113E"/>
<path d="M285.915 50.0065V23.7636H295.089C298.267 23.7636 300.677 24.3764 302.32 25.6021C303.963 26.8157 304.784 28.6 304.784 30.9552C304.784 32.2409 304.454 33.3764 303.795 34.3617C303.135 35.335 302.218 36.0499 301.043 36.5065C302.386 36.843 303.441 37.5219 304.209 38.5433C304.988 39.5646 305.378 40.8143 305.378 42.2922C305.378 44.8156 304.574 46.7261 302.967 48.0239C301.36 49.3216 299.07 49.9825 296.096 50.0065H285.915ZM291.311 38.5793V45.6627H295.934C297.205 45.6627 298.195 45.3623 298.902 44.7615C299.622 44.1487 299.981 43.3076 299.981 42.2382C299.981 39.835 298.74 38.6154 296.258 38.5793H291.311ZM291.311 34.7582H295.304C298.027 34.7102 299.388 33.6227 299.388 31.4959C299.388 30.3063 299.04 29.4532 298.344 28.9365C297.661 28.4078 296.576 28.1434 295.089 28.1434H291.311V34.7582Z" fill="#2C113E"/>
<path d="M325.201 38.6334H314.84V45.6627H327V50.0065H309.443V23.7636H326.964V28.1434H314.84V34.3977H325.201V38.6334Z" fill="#2C113E"/>
<defs>
<clipPath id="clip0">
<rect width="10.3756" height="10.3756" fill="white" transform="translate(259.391 55.2252)"/>
</clipPath>
</defs>
</svg>
